<svg xmlns="http://www.w3.org/2000/svg" xmlns:xlink="http://www.w3.org/1999/xlink" xmlns:inkscape="http://www.inkscape.org/namespaces/inkscape" version="1.1" width="331" height="282" viewBox="0 0 331 282">
<defs>
<clipPath id="clip_1">
<path transform="matrix(1.00003,0,0,-1.00002,66.108539,245.24666)" d="M0 0V127.56062H212.60106V0Z"/>
</clipPath>
<g id="pattern_tile_2">
<path transform="matrix(-.7071,-.7071,-.7071,.7071,-157,732)" stroke-width=".99628" stroke-linecap="butt" stroke-miterlimit="10" stroke-linejoin="miter" fill="none" stroke="#0000ff" d="M-2.98883 0H2.98883"/>
</g>
<pattern id="pattern_2" patternUnits="userSpaceOnUse" patternContentUnits="userSpaceOnUse" x="0" y="0" width="5.97766" height="5.97766">
<g transform="matrix(-.7071136,-.7071136,-.7071136,.7071136,406.59034,-628.624)">
<use x="0" y="0" xlink:href="#pattern_tile_2"/>
</g>
</pattern>
<clipPath id="clip_3">
<path transform="matrix(1.00003,0,0,-1.00002,66.108539,245.24666)" d="M0 0V212.60106H177.16754V0Z"/>
</clipPath>
<g id="pattern_tile_4">
<path transform="matrix(.7071,-.7071,-.7071,-.7071,-157,732)" stroke-width=".99628" stroke-linecap="butt" stroke-miterlimit="10" stroke-linejoin="miter" fill="none" stroke="#ff0000" d="M-2.98883 0H2.98883"/>
</g>
<pattern id="pattern_4" patternUnits="userSpaceOnUse" patternContentUnits="userSpaceOnUse" x="0" y="0" width="5.97766" height="5.97766">
<g transform="matrix(.7071136,-.7071136,-.7071136,-.7071136,628.624,406.59034)">
<use x="0" y="0" xlink:href="#pattern_tile_4"/>
</g>
</pattern>
<path id="font_5_82" d="M.4189911 0V.0309906H.3869934C.29699708 .0309906 .2939911 .041992189 .2939911 .07902527V.64012148C.2939911 .6640167 .2939911 .6660156 .2709961 .6660156 .20899964 .60227969 .12098694 .60227969 .08898926 .60227969V.57128909C.10899353 .57128909 .16799927 .57128909 .21998596 .5972748V.07902527C.21998596 .042999269 .21699524 .0309906 .1269989 .0309906H.09498596V0C.12998963 .0029907227 .21699524 .0029907227 .25698854 .0029907227 .29699708 .0029907227 .38398744 .0029907227 .4189911 0Z"/>
<path id="font_5_109" d="M.5349884 0V.0309906C.46499635 .0309906 .45700074 .037994386 .45700074 .08705139V.4423828L.30999757 .43066407V.3996582C.37998963 .3996582 .3880005 .39266969 .3880005 .34373475V.16601563C.3880005 .07910156 .33999635 .011245728 .2669983 .011245728 .18299866 .011245728 .1789856 .058135988 .1789856 .11009216V.4423828L.03199768 .43066407V.3996582C.10998535 .3996582 .10998535 .39666749 .10998535 .3078003V.15802002C.10998535 .080093387 .10998535-.0107421879 .2619934-.0107421879 .31799317-.0107421879 .3619995 .017242432 .3909912 .07910156V-.0107421879L.5349884 0Z"/>
<path id="font_5_77" d="M.5349884 0V.0309906C.48298646 .0309906 .45799256 .0309906 .45700074 .061019899V.25221253C.45700074 .3383026 .45700074 .36932374 .42599488 .405365 .4119873 .42237855 .3789978 .4423828 .32099916 .4423828 .24798584 .4423828 .20098877 .39935304 .17298889 .33729554V.4423828L.03199768 .43066407V.3996582C.101989749 .3996582 .10998535 .39266969 .10998535 .34370423V.07595825C.10998535 .0309906 .09899902 .0309906 .03199768 .0309906V0L.14498902 .0029907227 .25698854 0V.0309906C.18998719 .0309906 .1789856 .0309906 .1789856 .07595825V.25978089C.1789856 .36431886 .25 .42037965 .31399537 .42037965 .3769989 .42037965 .3880005 .36631776 .3880005 .30926515V.076034549C.3880005 .0309906 .3769989 .0309906 .30999757 .0309906V0L.4229889 .0029907227 .5349884 0Z"/>
<path id="font_5_66" d="M.24699402 0V.0309906C.18099976 .0309906 .1769867 .035995485 .1769867 .075042728V.4423828L.036987306 .43066407V.3996582C.101989749 .3996582 .11099243 .3936615 .11099243 .3447113V.07595825C.11099243 .0309906 .099990848 .0309906 .032989503 .0309906V0L.14299011 .0029907227C.17799378 .0029907227 .21299744 .0009918213 .24699402 0M.19198609 .603775C.19198609 .6307678 .16899109 .6567688 .13899231 .6567688 .10499573 .6567688 .084991458 .6287689 .084991458 .603775 .084991458 .57676699 .10798645 .55078127 .13798523 .55078127 .17199707 .55078127 .19198609 .5787811 .19198609 .603775Z"/>
<path id="font_5_105" d="M.33198548 .12385559V.18066406H.30699159V.12585449C.30699159 .052108766 .2769928 .014251709 .23999024 .014251709 .17298889 .014251709 .17298889 .10491943 .17298889 .12187195V.3996582H.31599427V.43066407H.17298889V.6142578H.147995C.14698792 .5324249 .116989139 .42565919 .018997193 .42166139V.3996582H.10398865V.12408447C.10398865 .0012512207 .19699097-.0107421879 .23298645-.0107421879 .3039856-.0107421879 .33198548 .060180665 .33198548 .12408447V.12385559Z"/>
<path id="font_5_106" d="M.45700074 .17037964C.45700074 .252594 .3939972 .33088685 .2899933 .35191346 .37199403 .37893678 .42999269 .4490509 .42999269 .52809146 .42999269 .6100464 .34199525 .6660156 .24598694 .6660156 .14498902 .6660156 .068984989 .60606387 .068984989 .53009036 .068984989 .49710084 .09098816 .47808839 .11999512 .47808839 .15098572 .47808839 .17098999 .50009158 .17098999 .5290985 .17098999 .57910159 .12399292 .57910159 .10899353 .57910159 .13999939 .62802127 .20599365 .64100649 .24198914 .64100649 .2829895 .64100649 .33799745 .6190338 .33799745 .5290985 .33799745 .51708987 .33599855 .45906068 .30999757 .4149933 .27999879 .36691285 .24598694 .36390687 .22099304 .36291505 .21299744 .36190797 .18899536 .35990907 .18199158 .35990907 .17399597 .35890199 .16699219 .35791017 .16699219 .3479004 .16699219 .33691407 .17399597 .33691407 .19099427 .33691407H.23498535C.31698609 .33691407 .35398866 .2686615 .35398866 .17037964 .35398866 .034469606 .2849884 .0055389406 .24099732 .0055389406 .19799805 .0055389406 .12298584 .022491456 .08799744 .08137512 .12298584 .07637024 .1539917 .09837341 .1539917 .1363678 .1539917 .17237854 .1269989 .19238281 .09799194 .19238281 .07398987 .19238281 .041992189 .17837525 .041992189 .1343689 .041992189 .043441774 .1349945-.022460938 .24398804-.022460938 .3659973-.022460938 .45700074 .06838989 .45700074 .17037964Z"/>
<path id="font_5_102" d="M.44299317 .7299957C.44299317 .7409973 .43399049 .75 .4229889 .75 .40899659 .75 .40499879 .73999026 .4019928 .7299957L.06098938-.21200562C.055999757-.2250061 .055999757-.23001099 .055999757-.23001099 .055999757-.24101258 .06498718-.25 .07598877-.25 .08999634-.25 .09399414-.2400055 .09700012-.23001099L.43798829 .71199038C.44299317 .72499087 .44299317 .7299957 .44299317 .7299957Z"/>
<path id="font_5_56" d="M.44898988 .20091248C.44898988 .31991578 .36698915 .41992188 .25898744 .41992188 .21099854 .41992188 .16799927 .4039154 .13198853 .36891175V.5641022C.1519928 .55778506 .18499756 .55078127 .21699524 .55078127 .33999635 .55078127 .4099884 .6418457 .4099884 .65493777 .4099884 .6609802 .40699769 .6660156 .3999939 .6660156 .3999939 .66607668 .39698792 .66607668 .3919983 .66308596 .37199403 .65408328 .32299806 .63378909 .2559967 .63378909 .21598816 .63409426 .16999817 .641098 .12298584 .6621094 .114990238 .6651001 .11099243 .6651001 .11099243 .6651001 .100997928 .66508486 .100997928 .657074 .100997928 .64108279V.3447113C.100997928 .3266449 .100997928 .31861878 .114990238 .31861878 .12199402 .31861878 .12399292 .32164 .12799073 .32765199 .13899231 .34371949 .17599488 .3979187 .25698854 .3979187 .30899049 .3979187 .33399964 .3517456 .34199525 .3336792 .35798646 .2965393 .3600006 .2574005 .3600006 .20721436 .3600006 .17218018 .3600006 .112197879 .33599855 .07032776 .31199647 .031448366 .2749939 .0055389406 .22898865 .0055389406 .1559906 .0055389406 .09899902 .05836487 .08198547 .1171875 .084991458 .11685181 .08799744 .115859989 .09899902 .115859989 .13198853 .115859989 .14898682 .14085388 .14898682 .16485596 .14898682 .18885803 .13198853 .21386719 .09899902 .21386719 .084991458 .21386719 .049987794 .2068634 .049987794 .16085816 .049987794 .07432556 .11898804-.022460938 .23098755-.022460938 .34700013-.022460938 .44898988 .07331848 .44898988 .20019531V.20091248Z"/>
<path id="font_5_98" d="M.3600006 .12823487C.3600006 .18122864 .32998658 .21122742 .31799317 .22323609 .2849884 .25523377 .24598694 .26322938 .20399475 .27124024 .147995 .28224183 .08099365 .29522706 .08099365 .35324098 .08099365 .38822938 .10699463 .42922975 .19299317 .42922975 .30299378 .42922975 .30799867 .3392334 .30999757 .30822755 .31098939 .2992401 .32199098 .2992401 .32199098 .2992401 .33499146 .2992401 .33499146 .30422975 .33499146 .32322694V.4242401C.33499146 .4412384 .33499146 .4482422 .32398988 .4482422 .31900025 .4482422 .31698609 .4482422 .3039856 .43623353 .30099488 .43223573 .29100038 .42323304 .2869873 .42022706 .24899292 .4482422 .20799256 .4482422 .19299317 .4482422 .070999149 .4482422 .032989503 .38124085 .032989503 .3252411 .032989503 .29023744 .04899597 .26223756 .07598877 .24023438 .10798645 .2142334 .13598633 .2082367 .20799256 .19422913 .22999573 .19021607 .31199647 .17422486 .31199647 .10221863 .31199647 .051223756 .2769928 .011245728 .19898987 .011245728 .114990238 .011245728 .07899475 .068222049 .05999756 .1532135 .056991579 .16621399 .055999757 .17021179 .04598999 .17021179 .032989503 .17021179 .032989503 .16322327 .032989503 .1452179V.013214111C.032989503-.003753662 .032989503-.0107421879 .04399109-.0107421879 .04899597-.0107421879 .049987794-.009750366 .068984989 .009246826 .070999149 .011245728 .070999149 .013214111 .08898926 .032226564 .1329956-.009750366 .17799378-.0107421879 .19898987-.0107421879 .31399537-.0107421879 .3600006 .05621338 .3600006 .1282196V.12823487Z"/>
<path id="font_5_101" d="M.45700074 .2036438C.45700074 .33070375 .36799623 .4267578 .25698854 .4267578 .18899536 .4267578 .1519928 .37573243 .13198853 .327713V.35173036C.13198853 .6047821 .2559967 .64100649 .30699159 .64100649 .33099366 .64100649 .37298585 .634964 .394989 .6007538 .37998963 .6007538 .33999635 .6007538 .33999635 .5557556 .33999635 .524765 .3639984 .5097656 .38598634 .5097656 .4019928 .5097656 .43199159 .51875308 .43199159 .5577545 .43199159 .6178589 .3880005 .6660156 .30499269 .6660156 .1769867 .6660156 .041992189 .5367584 .041992189 .31570436 .041992189 .048553468 .1579895-.022460938 .25099183-.022460938 .3619995-.022460938 .45700074 .07156372 .45700074 .2036438M.36698915 .20463562C.36698915 .15661621 .36698915 .10658264 .34999085 .0705719 .31999208 .010528564 .27398683 .0055389406 .25099183 .0055389406 .18798828 .0055389406 .1579895 .06556702 .1519928 .080566409 .13398743 .127594 .13398743 .2076416 .13398743 .22564698 .13398743 .30369569 .1659851 .40374757 .2559967 .40374757 .27198792 .40374757 .31799317 .40374757 .34899903 .34172059 .36698915 .30470277 .36698915 .2536621 .36698915 .20463562Z"/>
</defs>
<path transform="matrix(1.00003,0,0,-1.00002,66.108539,245.24666)" d="M0 0V127.56062H212.60106V0Z" fill="#0000ff" fill-opacity=".25"/>
<path transform="matrix(1.00003,0,0,-1.00002,66.108539,245.24666)" stroke-width=".3985" stroke-linecap="butt" stroke-miterlimit="10" stroke-linejoin="miter" fill="none" stroke="#000000" d="M0 0V127.56062H212.60106V0Z"/>
<path transform="matrix(1.00003,0,0,-1.00002,66.108539,245.24666)" d="M0 0V212.60106H177.16754V0Z" fill="#ff0000" fill-opacity=".3"/>
<path transform="matrix(1.00003,0,0,-1.00002,66.108539,245.24666)" stroke-width=".3985" stroke-linecap="butt" stroke-miterlimit="10" stroke-linejoin="miter" fill="none" stroke="#000000" d="M0 0V212.60106H177.16754V0Z"/>
<g clip-path="url(#clip_1)">
<rect transform="matrix(-.7071,-.7071,-.7071,.7071,-157,732)" fill="url(#pattern_2)" x="30.453339" y="-748.1282" width="251.811" height="251.81104"/>
</g>
<path transform="matrix(1.00003,0,0,-1.00002,66.108539,245.24666)" stroke-width=".3985" stroke-linecap="butt" stroke-miterlimit="10" stroke-linejoin="miter" fill="none" stroke="#000000" d="M0 0V127.56062H212.60106V0Z"/>
<g clip-path="url(#clip_3)">
<rect transform="matrix(.7071,-.7071,-.7071,-.7071,-157,732)" fill="url(#pattern_4)" x="496.31715" y="55.509614" width="286.88923" height="286.8892"/>
</g>
<path transform="matrix(1.00003,0,0,-1.00002,66.108539,245.24666)" stroke-width=".3985" stroke-linecap="butt" stroke-miterlimit="10" stroke-linejoin="miter" fill="none" stroke="#000000" d="M0 0V212.60106H177.16754V0Z"/>
<path transform="matrix(1.00003,0,0,-1.00002,66.108539,245.24666)" stroke-width="1.19553" stroke-linecap="butt" stroke-miterlimit="10" stroke-linejoin="miter" fill="none" stroke="#000000" d="M0 0H212.60106V212.60106H0Z"/>
<path transform="matrix(1.00003,0,0,-1.00002,66.108539,245.24666)" stroke-width=".79701" stroke-linecap="butt" stroke-miterlimit="10" stroke-linejoin="miter" fill="none" stroke="#000000" d="M35.43349 0V212.60106"/>
<path transform="matrix(1.00003,0,0,-1.00002,66.108539,245.24666)" stroke-width=".79701" stroke-linecap="butt" stroke-miterlimit="10" stroke-linejoin="miter" fill="none" stroke="#000000" d="M70.867 0V212.60106"/>
<path transform="matrix(1.00003,0,0,-1.00002,66.108539,245.24666)" stroke-width=".79701" stroke-linecap="butt" stroke-miterlimit="10" stroke-linejoin="miter" fill="none" stroke="#000000" d="M106.30052 0V212.60106"/>
<path transform="matrix(1.00003,0,0,-1.00002,66.108539,245.24666)" stroke-width=".79701" stroke-linecap="butt" stroke-miterlimit="10" stroke-linejoin="miter" fill="none" stroke="#000000" d="M141.73404 0V212.60106"/>
<path transform="matrix(1.00003,0,0,-1.00002,66.108539,245.24666)" stroke-width=".79701" stroke-linecap="butt" stroke-miterlimit="10" stroke-linejoin="miter" fill="none" stroke="#000000" d="M177.16754 0V212.60106"/>
<path transform="matrix(1.00003,0,0,-1.00002,66.108539,245.24666)" stroke-width=".79701" stroke-linecap="butt" stroke-miterlimit="10" stroke-linejoin="miter" fill="none" stroke="#000000" d="M0 42.5202H212.60106"/>
<path transform="matrix(1.00003,0,0,-1.00002,66.108539,245.24666)" stroke-width=".79701" stroke-linecap="butt" stroke-miterlimit="10" stroke-linejoin="miter" fill="none" stroke="#000000" d="M0 85.04042H212.60106"/>
<path transform="matrix(1.00003,0,0,-1.00002,66.108539,245.24666)" stroke-width=".79701" stroke-linecap="butt" stroke-miterlimit="10" stroke-linejoin="miter" fill="none" stroke="#000000" d="M0 127.56062H212.60106"/>
<path transform="matrix(1.00003,0,0,-1.00002,66.108539,245.24666)" stroke-width=".79701" stroke-linecap="butt" stroke-miterlimit="10" stroke-linejoin="miter" fill="none" stroke="#000000" d="M0 170.08086H212.60106"/>
<path transform="matrix(1.00003,0,0,-1.00002,66.108539,245.24666)" stroke-width=".79701" stroke-linecap="butt" stroke-miterlimit="10" stroke-linejoin="miter" fill="none" stroke="#000000" d="M233.86116 .59775V212.0033"/>
<path transform="matrix(0,1.00002,1.00003,0,299.9767,244.6489)" stroke-width=".79701" stroke-linecap="square" stroke-miterlimit="10" stroke-linejoin="miter" fill="none" stroke="#000000" d="M.19925-3.18808V3.18808"/>
<path transform="matrix(0,-1.00002,-1.00003,-0,299.9767,33.23912)" stroke-width=".79701" stroke-linecap="square" stroke-miterlimit="10" stroke-linejoin="miter" fill="none" stroke="#000000" d="M.19925-3.18808V3.18808"/>
<use data-text="1" xlink:href="#font_5_82" transform="matrix(9.962899,0,0,-9.962799,303.69569,142.2066)"/>
<use data-text="u" xlink:href="#font_5_109" transform="matrix(9.962899,0,0,-9.962799,311.99479,142.2066)"/>
<use data-text="n" xlink:href="#font_5_77" transform="matrix(9.962899,0,0,-9.962799,317.53416,142.2066)"/>
<use data-text="i" xlink:href="#font_5_66" transform="matrix(9.962899,0,0,-9.962799,323.07353,142.2066)"/>
<use data-text="t" xlink:href="#font_5_105" transform="matrix(9.962899,0,0,-9.962799,325.8432,142.2066)"/>
<path transform="matrix(1.00003,0,0,-1.00002,66.108539,245.24666)" stroke-width=".79701" stroke-linecap="butt" stroke-miterlimit="10" stroke-linejoin="miter" fill="none" stroke="#000000" d="M.59775 233.86116H212.0033"/>
<path transform="matrix(-1.00003,-0,0,1.00002,66.70631,11.380814)" stroke-width=".79701" stroke-linecap="square" stroke-miterlimit="10" stroke-linejoin="miter" fill="none" stroke="#000000" d="M.19925-3.18808V3.18808"/>
<path transform="matrix(1.00003,0,0,-1.00002,278.1182,11.380814)" stroke-width=".79701" stroke-linecap="square" stroke-miterlimit="10" stroke-linejoin="miter" fill="none" stroke="#000000" d="M.19925-3.18808V3.18808"/>
<use data-text="1" xlink:href="#font_5_82" transform="matrix(9.962899,0,0,-9.962799,159.40033,7.551895)"/>
<use data-text="u" xlink:href="#font_5_109" transform="matrix(9.962899,0,0,-9.962799,167.69944,7.551895)"/>
<use data-text="n" xlink:href="#font_5_77" transform="matrix(9.962899,0,0,-9.962799,173.2388,7.551895)"/>
<use data-text="i" xlink:href="#font_5_66" transform="matrix(9.962899,0,0,-9.962799,178.77817,7.551895)"/>
<use data-text="t" xlink:href="#font_5_105" transform="matrix(9.962899,0,0,-9.962799,181.54785,7.551895)"/>
<path transform="matrix(1.00003,0,0,-1.00002,66.108539,245.24666)" stroke-width=".79701" stroke-linecap="butt" stroke-miterlimit="10" stroke-linejoin="miter" fill="none" stroke="#0000ff" d="M-21.2601 .59775V126.96288"/>
<path transform="matrix(0,1.00002,1.00003,0,44.847799,244.6489)" stroke-width=".79701" stroke-linecap="square" stroke-miterlimit="10" stroke-linejoin="miter" fill="none" stroke="#0000ff" d="M.19925-3.18808V3.18808"/>
<path transform="matrix(0,-1.00002,-1.00003,-0,44.847799,118.281238)" stroke-width=".79701" stroke-linecap="square" stroke-miterlimit="10" stroke-linejoin="miter" fill="none" stroke="#0000ff" d="M.19925-3.18808V3.18808"/>
<use data-text="3" xlink:href="#font_5_106" transform="matrix(9.962899,0,0,-9.962799,1.2165833,183.95543)" fill="#0000ff"/>
<use data-text="/" xlink:href="#font_5_102" transform="matrix(9.962899,0,0,-9.962799,6.1980288,183.95543)" fill="#0000ff"/>
<use data-text="5" xlink:href="#font_5_56" transform="matrix(9.962899,0,0,-9.962799,11.179474,183.95543)" fill="#0000ff"/>
<use data-text="u" xlink:href="#font_5_109" transform="matrix(9.962899,0,0,-9.962799,19.478562,183.95543)" fill="#0000ff"/>
<use data-text="n" xlink:href="#font_5_77" transform="matrix(9.962899,0,0,-9.962799,25.01793,183.95543)" fill="#0000ff"/>
<use data-text="i" xlink:href="#font_5_66" transform="matrix(9.962899,0,0,-9.962799,30.557297,183.95543)" fill="#0000ff"/>
<use data-text="t" xlink:href="#font_5_105" transform="matrix(9.962899,0,0,-9.962799,33.326997,183.95543)" fill="#0000ff"/>
<use data-text="s" xlink:href="#font_5_98" transform="matrix(9.962899,0,0,-9.962799,37.20256,183.95543)" fill="#0000ff"/>
<path transform="matrix(1.00003,0,0,-1.00002,66.108539,245.24666)" stroke-width=".79701" stroke-linecap="butt" stroke-miterlimit="10" stroke-linejoin="miter" fill="none" stroke="#ff0000" d="M.59775-21.2601H176.56978"/>
<path transform="matrix(-1.00003,-0,0,1.00002,66.70631,266.50718)" stroke-width=".79701" stroke-linecap="square" stroke-miterlimit="10" stroke-linejoin="miter" fill="none" stroke="#ff0000" d="M.19925-3.18808V3.18808"/>
<path transform="matrix(1.00003,0,0,-1.00002,242.68363,266.50718)" stroke-width=".79701" stroke-linecap="square" stroke-miterlimit="10" stroke-linejoin="miter" fill="none" stroke="#ff0000" d="M.19925-3.18808V3.18808"/>
<use data-text="5" xlink:href="#font_5_56" transform="matrix(9.962899,0,0,-9.962799,134.73859,277.6983)" fill="#ff0000"/>
<use data-text="/" xlink:href="#font_5_102" transform="matrix(9.962899,0,0,-9.962799,139.72003,277.6983)" fill="#ff0000"/>
<use data-text="6" xlink:href="#font_5_101" transform="matrix(9.962899,0,0,-9.962799,144.70148,277.6983)" fill="#ff0000"/>
<use data-text="u" xlink:href="#font_5_109" transform="matrix(9.962899,0,0,-9.962799,153.00058,277.6983)" fill="#ff0000"/>
<use data-text="n" xlink:href="#font_5_77" transform="matrix(9.962899,0,0,-9.962799,158.53995,277.6983)" fill="#ff0000"/>
<use data-text="i" xlink:href="#font_5_66" transform="matrix(9.962899,0,0,-9.962799,164.07932,277.6983)" fill="#ff0000"/>
<use data-text="t" xlink:href="#font_5_105" transform="matrix(9.962899,0,0,-9.962799,166.849,277.6983)" fill="#ff0000"/>
<use data-text="s" xlink:href="#font_5_98" transform="matrix(9.962899,0,0,-9.962799,170.72458,277.6983)" fill="#ff0000"/>
</svg>
