<svg xmlns="http://www.w3.org/2000/svg" xmlns:xlink="http://www.w3.org/1999/xlink" xmlns:inkscape="http://www.inkscape.org/namespaces/inkscape" version="1.1" width="281" height="63" viewBox="0 0 281 63">
<path transform="matrix(1.00005,0,0,-1,30.47377,30.543999)" stroke-width="1.19553" stroke-linecap="butt" stroke-miterlimit="10" stroke-linejoin="miter" fill="none" stroke="#000000" d="M28.3468 0C28.3468 15.6557 15.6557 28.3468 0 28.3468-15.6557 28.3468-28.3468 15.6557-28.3468 0-28.3468-15.6557-15.6557-28.3468 0-28.3468 15.6557-28.3468 28.3468-15.6557 28.3468 0ZM0 0"/>
<path transform="matrix(1.00005,0,0,-1,30.47377,30.543999)" d="M0 28.3468V0L-24.5491-14.17339C-32.37674-.6155-27.7313 16.72147-14.17339 24.5491-9.86531 27.0362-4.97461 28.3468 0 28.3468" fill="#9999ff"/>
<path transform="matrix(1.00005,0,0,-1,30.47377,30.543999)" stroke-width=".3985" stroke-linecap="butt" stroke-miterlimit="10" stroke-linejoin="miter" fill="none" stroke="#000000" d="M0 28.3468V0L-24.5491-14.17339C-32.37674-.6155-27.7313 16.72147-14.17339 24.5491-9.86531 27.0362-4.97461 28.3468 0 28.3468"/>
<path transform="matrix(1.00005,0,0,-1,30.47377,30.543999)" stroke-width=".79701" stroke-linecap="butt" stroke-miterlimit="10" stroke-linejoin="miter" fill="none" stroke="#000000" d="M28.3468 0H-28.3468"/>
<path transform="matrix(1.00005,0,0,-1,30.47377,30.543999)" stroke-width=".79701" stroke-linecap="butt" stroke-miterlimit="10" stroke-linejoin="miter" fill="none" stroke="#000000" d="M24.5491 14.17339-24.5491-14.17339"/>
<path transform="matrix(1.00005,0,0,-1,30.47377,30.543999)" stroke-width=".79701" stroke-linecap="butt" stroke-miterlimit="10" stroke-linejoin="miter" fill="none" stroke="#000000" d="M14.17339 24.5491-14.17339-24.5491"/>
<path transform="matrix(1.00005,0,0,-1,30.47377,30.543999)" stroke-width=".79701" stroke-linecap="butt" stroke-miterlimit="10" stroke-linejoin="miter" fill="none" stroke="#000000" d="M0 28.3468V-28.3468"/>
<path transform="matrix(1.00005,0,0,-1,30.47377,30.543999)" stroke-width=".79701" stroke-linecap="butt" stroke-miterlimit="10" stroke-linejoin="miter" fill="none" stroke="#000000" d="M-14.17339 24.5491 14.17339-24.5491"/>
<path transform="matrix(1.00005,0,0,-1,30.47377,30.543999)" stroke-width=".79701" stroke-linecap="butt" stroke-miterlimit="10" stroke-linejoin="miter" fill="none" stroke="#000000" d="M-24.5491 14.17339 24.5491-14.17339"/>
<path transform="matrix(1.00005,0,0,-1,30.47377,30.543999)" d="M56.69362-28.3468H42.5202V28.3468H56.69362Z" fill="#9999ff"/>
<path transform="matrix(1.00005,0,0,-1,30.47377,30.543999)" stroke-width=".3985" stroke-linecap="butt" stroke-miterlimit="10" stroke-linejoin="miter" fill="none" stroke="#000000" d="M56.69362-28.3468H42.5202V28.3468H56.69362Z"/>
<path transform="matrix(1.00005,0,0,-1,30.47377,30.543999)" stroke-width="1.19553" stroke-linecap="butt" stroke-miterlimit="10" stroke-linejoin="miter" fill="none" stroke="#000000" d="M42.5202 28.3468V-28.3468H85.04042V28.3468Z"/>
<path transform="matrix(1.00005,0,0,-1,30.47377,30.543999)" stroke-width=".79701" stroke-linecap="butt" stroke-miterlimit="10" stroke-linejoin="miter" fill="none" stroke="#000000" d="M56.69362 28.3468V-28.3468"/>
<path transform="matrix(1.00005,0,0,-1,30.47377,30.543999)" stroke-width=".79701" stroke-linecap="butt" stroke-miterlimit="10" stroke-linejoin="miter" fill="none" stroke="#000000" d="M70.867 28.3468V-28.3468"/>
<path transform="matrix(1.00005,0,0,-1,30.47377,30.543999)" stroke-width=".79701" stroke-linecap="butt" stroke-miterlimit="10" stroke-linejoin="miter" fill="none" stroke="#000000" d="M42.5202-14.17339H85.04042"/>
<path transform="matrix(1.00005,0,0,-1,30.47377,30.543999)" stroke-width=".79701" stroke-linecap="butt" stroke-miterlimit="10" stroke-linejoin="miter" fill="none" stroke="#000000" d="M42.5202 0H85.04042"/>
<path transform="matrix(1.00005,0,0,-1,30.47377,30.543999)" stroke-width=".79701" stroke-linecap="butt" stroke-miterlimit="10" stroke-linejoin="miter" fill="none" stroke="#000000" d="M42.5202 14.17339H85.04042"/>
<path transform="matrix(1.00005,0,0,-1,30.47377,30.543999)" stroke-width="1.19553" stroke-linecap="butt" stroke-miterlimit="10" stroke-linejoin="miter" fill="none" stroke="#000000" d="M108.07219 21.2601C108.07219 24.19554 105.69261 26.57512 102.75717 26.57512 99.82173 26.57512 97.44215 24.19554 97.44215 21.2601 97.44215 18.32466 99.82173 15.94507 102.75717 15.94507 105.69261 15.94507 108.07219 18.32466 108.07219 21.2601ZM102.75717 21.2601"/>
<path transform="matrix(1.00005,0,0,-1,30.47377,30.543999)" stroke-width="1.19553" stroke-linecap="butt" stroke-miterlimit="10" stroke-linejoin="miter" fill="none" stroke="#000000" d="M108.07219 7.08669C108.07219 10.02213 105.69261 12.4017 102.75717 12.4017 99.82173 12.4017 97.44215 10.02213 97.44215 7.08669 97.44215 4.15125 99.82173 1.77167 102.75717 1.77167 105.69261 1.77167 108.07219 4.15125 108.07219 7.08669ZM102.75717 7.08669"/>
<path transform="matrix(1.00005,0,0,-1,30.47377,30.543999)" stroke-width="1.19553" stroke-linecap="butt" stroke-miterlimit="10" stroke-linejoin="miter" fill="none" stroke="#000000" d="M122.24559 21.2601C122.24559 24.19554 119.86601 26.57512 116.93057 26.57512 113.99513 26.57512 111.61555 24.19554 111.61555 21.2601 111.61555 18.32466 113.99513 15.94507 116.93057 15.94507 119.86601 15.94507 122.24559 18.32466 122.24559 21.2601ZM116.93057 21.2601"/>
<path transform="matrix(1.00005,0,0,-1,30.47377,30.543999)" stroke-width="1.19553" stroke-linecap="butt" stroke-miterlimit="10" stroke-linejoin="miter" fill="none" stroke="#000000" d="M122.24559 7.08669C122.24559 10.02213 119.86601 12.4017 116.93057 12.4017 113.99513 12.4017 111.61555 10.02213 111.61555 7.08669 111.61555 4.15125 113.99513 1.77167 116.93057 1.77167 119.86601 1.77167 122.24559 4.15125 122.24559 7.08669ZM116.93057 7.08669"/>
<path transform="matrix(1.00005,0,0,-1,30.47377,30.543999)" stroke-width="1.19553" stroke-linecap="butt" stroke-miterlimit="10" stroke-linejoin="miter" fill="none" stroke="#000000" d="M136.419 21.2601C136.419 24.19554 134.03943 26.57512 131.10399 26.57512 128.16855 26.57512 125.78896 24.19554 125.78896 21.2601 125.78896 18.32466 128.16855 15.94507 131.10399 15.94507 134.03943 15.94507 136.419 18.32466 136.419 21.2601ZM131.10399 21.2601"/>
<path transform="matrix(1.00005,0,0,-1,30.47377,30.543999)" stroke-width="1.19553" stroke-linecap="butt" stroke-miterlimit="10" stroke-linejoin="miter" fill="none" stroke="#000000" d="M136.419 7.08669C136.419 10.02213 134.03943 12.4017 131.10399 12.4017 128.16855 12.4017 125.78896 10.02213 125.78896 7.08669 125.78896 4.15125 128.16855 1.77167 131.10399 1.77167 134.03943 1.77167 136.419 4.15125 136.419 7.08669ZM131.10399 7.08669"/>
<path transform="matrix(1.00005,0,0,-1,30.47377,30.543999)" stroke-width="1.19553" stroke-linecap="butt" stroke-miterlimit="10" stroke-linejoin="miter" fill="none" stroke="#000000" d="M150.5924 21.2601C150.5924 24.19554 148.21282 26.57512 145.27738 26.57512 142.34194 26.57512 139.96236 24.19554 139.96236 21.2601 139.96236 18.32466 142.34194 15.94507 145.27738 15.94507 148.21282 15.94507 150.5924 18.32466 150.5924 21.2601ZM145.27738 21.2601"/>
<path transform="matrix(1.00005,0,0,-1,30.47377,30.543999)" stroke-width="1.19553" stroke-linecap="butt" stroke-miterlimit="10" stroke-linejoin="miter" fill="none" stroke="#000000" d="M150.5924 7.08669C150.5924 10.02213 148.21282 12.4017 145.27738 12.4017 142.34194 12.4017 139.96236 10.02213 139.96236 7.08669 139.96236 4.15125 142.34194 1.77167 145.27738 1.77167 148.21282 1.77167 150.5924 4.15125 150.5924 7.08669ZM145.27738 7.08669"/>
<path transform="matrix(1.00005,0,0,-1,30.47377,30.543999)" stroke-width="1.19553" stroke-linecap="butt" stroke-miterlimit="10" stroke-linejoin="miter" fill="none" stroke="#000000" d="M164.76581 21.2601C164.76581 24.19554 162.38623 26.57512 159.45079 26.57512 156.51535 26.57512 154.13578 24.19554 154.13578 21.2601 154.13578 18.32466 156.51535 15.94507 159.45079 15.94507 162.38623 15.94507 164.76581 18.32466 164.76581 21.2601ZM159.45079 21.2601"/>
<path transform="matrix(1.00005,0,0,-1,30.47377,30.543999)" stroke-width="1.19553" stroke-linecap="butt" stroke-miterlimit="10" stroke-linejoin="miter" fill="none" stroke="#000000" d="M164.76581 7.08669C164.76581 10.02213 162.38623 12.4017 159.45079 12.4017 156.51535 12.4017 154.13578 10.02213 154.13578 7.08669 154.13578 4.15125 156.51535 1.77167 159.45079 1.77167 162.38623 1.77167 164.76581 4.15125 164.76581 7.08669ZM159.45079 7.08669"/>
<path transform="matrix(1.00005,0,0,-1,30.47377,30.543999)" stroke-width="1.19553" stroke-linecap="butt" stroke-miterlimit="10" stroke-linejoin="miter" fill="none" stroke="#000000" d="M178.93921 21.2601C178.93921 24.19554 176.55963 26.57512 173.62419 26.57512 170.68875 26.57512 168.30918 24.19554 168.30918 21.2601 168.30918 18.32466 170.68875 15.94507 173.62419 15.94507 176.55963 15.94507 178.93921 18.32466 178.93921 21.2601ZM173.62419 21.2601"/>
<path transform="matrix(1.00005,0,0,-1,30.47377,30.543999)" stroke-width="1.19553" stroke-linecap="butt" stroke-miterlimit="10" stroke-linejoin="miter" fill="none" stroke="#000000" d="M178.93921 7.08669C178.93921 10.02213 176.55963 12.4017 173.62419 12.4017 170.68875 12.4017 168.30918 10.02213 168.30918 7.08669 168.30918 4.15125 170.68875 1.77167 173.62419 1.77167 176.55963 1.77167 178.93921 4.15125 178.93921 7.08669ZM173.62419 7.08669"/>
<path transform="matrix(1.00005,0,0,-1,30.47377,30.543999)" d="M108.07219 21.2601C108.07219 24.19554 105.69261 26.57512 102.75717 26.57512 99.82173 26.57512 97.44215 24.19554 97.44215 21.2601 97.44215 18.32466 99.82173 15.94507 102.75717 15.94507 105.69261 15.94507 108.07219 18.32466 108.07219 21.2601ZM102.75717 21.2601" fill="#9999ff"/>
<path transform="matrix(1.00005,0,0,-1,30.47377,30.543999)" stroke-width=".3985" stroke-linecap="butt" stroke-miterlimit="10" stroke-linejoin="miter" fill="none" stroke="#000000" d="M108.07219 21.2601C108.07219 24.19554 105.69261 26.57512 102.75717 26.57512 99.82173 26.57512 97.44215 24.19554 97.44215 21.2601 97.44215 18.32466 99.82173 15.94507 102.75717 15.94507 105.69261 15.94507 108.07219 18.32466 108.07219 21.2601ZM102.75717 21.2601"/>
<path transform="matrix(1.00005,0,0,-1,30.47377,30.543999)" d="M108.07219 7.08669C108.07219 10.02213 105.69261 12.4017 102.75717 12.4017 99.82173 12.4017 97.44215 10.02213 97.44215 7.08669 97.44215 4.15125 99.82173 1.77167 102.75717 1.77167 105.69261 1.77167 108.07219 4.15125 108.07219 7.08669ZM102.75717 7.08669" fill="#9999ff"/>
<path transform="matrix(1.00005,0,0,-1,30.47377,30.543999)" stroke-width=".3985" stroke-linecap="butt" stroke-miterlimit="10" stroke-linejoin="miter" fill="none" stroke="#000000" d="M108.07219 7.08669C108.07219 10.02213 105.69261 12.4017 102.75717 12.4017 99.82173 12.4017 97.44215 10.02213 97.44215 7.08669 97.44215 4.15125 99.82173 1.77167 102.75717 1.77167 105.69261 1.77167 108.07219 4.15125 108.07219 7.08669ZM102.75717 7.08669"/>
<path transform="matrix(1.00005,0,0,-1,30.47377,30.543999)" d="M122.24559 21.2601C122.24559 24.19554 119.86601 26.57512 116.93057 26.57512 113.99513 26.57512 111.61555 24.19554 111.61555 21.2601 111.61555 18.32466 113.99513 15.94507 116.93057 15.94507 119.86601 15.94507 122.24559 18.32466 122.24559 21.2601ZM116.93057 21.2601" fill="#9999ff"/>
<path transform="matrix(1.00005,0,0,-1,30.47377,30.543999)" stroke-width=".3985" stroke-linecap="butt" stroke-miterlimit="10" stroke-linejoin="miter" fill="none" stroke="#000000" d="M122.24559 21.2601C122.24559 24.19554 119.86601 26.57512 116.93057 26.57512 113.99513 26.57512 111.61555 24.19554 111.61555 21.2601 111.61555 18.32466 113.99513 15.94507 116.93057 15.94507 119.86601 15.94507 122.24559 18.32466 122.24559 21.2601ZM116.93057 21.2601"/>
<path transform="matrix(1.00005,0,0,-1,30.47377,30.543999)" d="M122.24559 7.08669C122.24559 10.02213 119.86601 12.4017 116.93057 12.4017 113.99513 12.4017 111.61555 10.02213 111.61555 7.08669 111.61555 4.15125 113.99513 1.77167 116.93057 1.77167 119.86601 1.77167 122.24559 4.15125 122.24559 7.08669ZM116.93057 7.08669" fill="#9999ff"/>
<path transform="matrix(1.00005,0,0,-1,30.47377,30.543999)" stroke-width=".3985" stroke-linecap="butt" stroke-miterlimit="10" stroke-linejoin="miter" fill="none" stroke="#000000" d="M122.24559 7.08669C122.24559 10.02213 119.86601 12.4017 116.93057 12.4017 113.99513 12.4017 111.61555 10.02213 111.61555 7.08669 111.61555 4.15125 113.99513 1.77167 116.93057 1.77167 119.86601 1.77167 122.24559 4.15125 122.24559 7.08669ZM116.93057 7.08669"/>
<path transform="matrix(1.00005,0,0,-1,30.47377,30.543999)" d="M124.01727-15.94505V-12.40172H95.67047V-15.94505Z" fill="#9999ff"/>
<path transform="matrix(1.00005,0,0,-1,30.47377,30.543999)" stroke-width=".3985" stroke-linecap="butt" stroke-miterlimit="10" stroke-linejoin="miter" fill="none" stroke="#000000" d="M124.01727-15.94505V-12.40172H95.67047V-15.94505Z"/>
<path transform="matrix(1.00005,0,0,-1,30.47377,30.543999)" stroke-width="1.19553" stroke-linecap="butt" stroke-miterlimit="10" stroke-linejoin="miter" fill="none" stroke="#000000" d="M95.67047-14.17339H180.71089"/>
<path transform="matrix(1.00005,0,0,-1,30.47377,30.543999)" stroke-width=".3985" stroke-linecap="butt" stroke-miterlimit="10" stroke-linejoin="miter" fill="none" stroke="#000000" d="M95.67047-17.71674V-10.63004"/>
<path transform="matrix(1.00005,0,0,-1,30.47377,30.543999)" stroke-width=".3985" stroke-linecap="butt" stroke-miterlimit="10" stroke-linejoin="miter" fill="none" stroke="#000000" d="M102.75717-17.71674V-10.63004"/>
<path transform="matrix(1.00005,0,0,-1,30.47377,30.543999)" stroke-width=".3985" stroke-linecap="butt" stroke-miterlimit="10" stroke-linejoin="miter" fill="none" stroke="#000000" d="M109.84387-17.71674V-10.63004"/>
<path transform="matrix(1.00005,0,0,-1,30.47377,30.543999)" stroke-width=".3985" stroke-linecap="butt" stroke-miterlimit="10" stroke-linejoin="miter" fill="none" stroke="#000000" d="M116.93057-17.71674V-10.63004"/>
<path transform="matrix(1.00005,0,0,-1,30.47377,30.543999)" stroke-width=".3985" stroke-linecap="butt" stroke-miterlimit="10" stroke-linejoin="miter" fill="none" stroke="#000000" d="M124.01727-17.71674V-10.63004"/>
<path transform="matrix(1.00005,0,0,-1,30.47377,30.543999)" stroke-width=".3985" stroke-linecap="butt" stroke-miterlimit="10" stroke-linejoin="miter" fill="none" stroke="#000000" d="M131.10399-17.71674V-10.63004"/>
<path transform="matrix(1.00005,0,0,-1,30.47377,30.543999)" stroke-width=".3985" stroke-linecap="butt" stroke-miterlimit="10" stroke-linejoin="miter" fill="none" stroke="#000000" d="M138.19069-17.71674V-10.63004"/>
<path transform="matrix(1.00005,0,0,-1,30.47377,30.543999)" stroke-width=".3985" stroke-linecap="butt" stroke-miterlimit="10" stroke-linejoin="miter" fill="none" stroke="#000000" d="M145.27738-17.71674V-10.63004"/>
<path transform="matrix(1.00005,0,0,-1,30.47377,30.543999)" stroke-width=".3985" stroke-linecap="butt" stroke-miterlimit="10" stroke-linejoin="miter" fill="none" stroke="#000000" d="M152.36409-17.71674V-10.63004"/>
<path transform="matrix(1.00005,0,0,-1,30.47377,30.543999)" stroke-width=".3985" stroke-linecap="butt" stroke-miterlimit="10" stroke-linejoin="miter" fill="none" stroke="#000000" d="M159.45079-17.71674V-10.63004"/>
<path transform="matrix(1.00005,0,0,-1,30.47377,30.543999)" stroke-width=".3985" stroke-linecap="butt" stroke-miterlimit="10" stroke-linejoin="miter" fill="none" stroke="#000000" d="M166.53749-17.71674V-10.63004"/>
<path transform="matrix(1.00005,0,0,-1,30.47377,30.543999)" stroke-width=".3985" stroke-linecap="butt" stroke-miterlimit="10" stroke-linejoin="miter" fill="none" stroke="#000000" d="M173.62419-17.71674V-10.63004"/>
<path transform="matrix(1.00005,0,0,-1,30.47377,30.543999)" stroke-width=".3985" stroke-linecap="butt" stroke-miterlimit="10" stroke-linejoin="miter" fill="none" stroke="#000000" d="M180.71089-17.71674V-10.63004"/>
<path transform="matrix(1.00005,0,0,-1,30.47377,30.543999)" d="M245.1996-8.6347 244.12302-11.27403 241.28012-11.48233 243.45761-13.32185 242.77725-16.08994 245.1996-14.58748 247.62195-16.08994 246.9416-13.32185 249.11908-11.48233 246.2762-11.27403Z" fill="#9999ff"/>
<path transform="matrix(1.00005,0,0,-1,30.47377,30.543999)" stroke-width=".3985" stroke-linecap="butt" stroke-miterlimit="10" stroke-linejoin="miter" fill="none" stroke="#000000" d="M245.1996-8.6347 244.12302-11.27403 241.28012-11.48233 243.45761-13.32185 242.77725-16.08994 245.1996-14.58748 247.62195-16.08994 246.9416-13.32185 249.11908-11.48233 246.2762-11.27403Z"/>
<path transform="matrix(1.00005,0,0,-1,30.47377,30.543999)" d="M198.42809-.13078 197.3515-2.77013 194.5086-2.97842 196.6861-4.81795 196.00574-7.58603 198.42809-6.08357 200.85044-7.58603 200.17008-4.81795 202.34757-2.97842 199.50467-2.77013Z" fill="#9999ff"/>
<path transform="matrix(1.00005,0,0,-1,30.47377,30.543999)" stroke-width=".3985" stroke-linecap="butt" stroke-miterlimit="10" stroke-linejoin="miter" fill="none" stroke="#000000" d="M198.42809-.13078 197.3515-2.77013 194.5086-2.97842 196.6861-4.81795 196.00574-7.58603 198.42809-6.08357 200.85044-7.58603 200.17008-4.81795 202.34757-2.97842 199.50467-2.77013Z"/>
<path transform="matrix(1.00005,0,0,-1,30.47377,30.543999)" d="M204.09737-22.8079 203.02077-25.44724 200.17789-25.65553 202.35536-27.49506 201.67502-30.26314 204.09737-28.76068 206.5197-30.26314 205.83936-27.49506 208.01685-25.65553 205.17395-25.44724Z" fill="#9999ff"/>
<path transform="matrix(1.00005,0,0,-1,30.47377,30.543999)" stroke-width=".3985" stroke-linecap="butt" stroke-miterlimit="10" stroke-linejoin="miter" fill="none" stroke="#000000" d="M204.09737-22.8079 203.02077-25.44724 200.17789-25.65553 202.35536-27.49506 201.67502-30.26314 204.09737-28.76068 206.5197-30.26314 205.83936-27.49506 208.01685-25.65553 205.17395-25.44724Z"/>
<path transform="matrix(1.00005,0,0,-1,30.47377,30.543999)" d="M202.68006 16.877 201.60346 14.23767 198.76058 14.02937 200.93805 12.18985 200.2577 9.42177 202.68006 10.92422 205.10239 9.42177 204.42205 12.18985 206.59954 14.02937 203.75664 14.23767Z" fill="#9999ff"/>
<path transform="matrix(1.00005,0,0,-1,30.47377,30.543999)" stroke-width=".3985" stroke-linecap="butt" stroke-miterlimit="10" stroke-linejoin="miter" fill="none" stroke="#000000" d="M202.68006 16.877 201.60346 14.23767 198.76058 14.02937 200.93805 12.18985 200.2577 9.42177 202.68006 10.92422 205.10239 9.42177 204.42205 12.18985 206.59954 14.02937 203.75664 14.23767Z"/>
<path transform="matrix(1.00005,0,0,-1,30.47377,30.543999)" d="M225.35694 8.3731 224.28035 5.73375 221.43746 5.52545 223.61495 3.68594 222.93459 .91786 225.35694 2.42032 227.77928 .91786 227.09893 3.68594 229.27642 5.52545 226.43352 5.73375Z" fill="#ffffff"/>
<path transform="matrix(1.00005,0,0,-1,30.47377,30.543999)" stroke-width=".3985" stroke-linecap="butt" stroke-miterlimit="10" stroke-linejoin="miter" fill="none" stroke="#000000" d="M225.35694 8.3731 224.28035 5.73375 221.43746 5.52545 223.61495 3.68594 222.93459 .91786 225.35694 2.42032 227.77928 .91786 227.09893 3.68594 229.27642 5.52545 226.43352 5.73375Z"/>
<path transform="matrix(1.00005,0,0,-1,30.47377,30.543999)" d="M199.84519-11.46935 198.7686-14.10867 195.9257-14.31697 198.1032-16.1565 197.42284-18.92458 199.84519-17.42212 202.26753-18.92458 201.58718-16.1565 203.76467-14.31697 200.92177-14.10867Z" fill="#ffffff"/>
<path transform="matrix(1.00005,0,0,-1,30.47377,30.543999)" stroke-width=".3985" stroke-linecap="butt" stroke-miterlimit="10" stroke-linejoin="miter" fill="none" stroke="#000000" d="M199.84519-11.46935 198.7686-14.10867 195.9257-14.31697 198.1032-16.1565 197.42284-18.92458 199.84519-17.42212 202.26753-18.92458 201.58718-16.1565 203.76467-14.31697 200.92177-14.10867Z"/>
<path transform="matrix(1.00005,0,0,-1,30.47377,30.543999)" d="M221.10497-7.21739 220.02838-9.85672 217.18549-10.06502 219.36298-11.90454 218.68264-14.67262 221.10497-13.17017 223.52732-14.67262 222.84697-11.90454 225.02445-10.06502 222.18157-9.85672Z" fill="#ffffff"/>
<path transform="matrix(1.00005,0,0,-1,30.47377,30.543999)" stroke-width=".3985" stroke-linecap="butt" stroke-miterlimit="10" stroke-linejoin="miter" fill="none" stroke="#000000" d="M221.10497-7.21739 220.02838-9.85672 217.18549-10.06502 219.36298-11.90454 218.68264-14.67262 221.10497-13.17017 223.52732-14.67262 222.84697-11.90454 225.02445-10.06502 222.18157-9.85672Z"/>
<path transform="matrix(1.00005,0,0,-1,30.47377,30.543999)" d="M233.86084-14.30397 232.78426-16.94331 229.94136-17.15161 232.11885-18.99112 231.43849-21.7592 233.86084-20.25674 236.28319-21.7592 235.60285-18.99112 237.78032-17.15161 234.93744-16.94331Z" fill="#ffffff"/>
<path transform="matrix(1.00005,0,0,-1,30.47377,30.543999)" stroke-width=".3985" stroke-linecap="butt" stroke-miterlimit="10" stroke-linejoin="miter" fill="none" stroke="#000000" d="M233.86084-14.30397 232.78426-16.94331 229.94136-17.15161 232.11885-18.99112 231.43849-21.7592 233.86084-20.25674 236.28319-21.7592 235.60285-18.99112 237.78032-17.15161 234.93744-16.94331Z"/>
<path transform="matrix(1.00005,0,0,-1,30.47377,30.543999)" d="M192.7586 23.96361 191.682 21.32426 188.83913 21.11597 191.0166 19.27644 190.33626 16.50836 192.7586 18.01082 195.18094 16.50836 194.5006 19.27644 196.67809 21.11597 193.83519 21.32426Z" fill="#ffffff"/>
<path transform="matrix(1.00005,0,0,-1,30.47377,30.543999)" stroke-width=".3985" stroke-linecap="butt" stroke-miterlimit="10" stroke-linejoin="miter" fill="none" stroke="#000000" d="M192.7586 23.96361 191.682 21.32426 188.83913 21.11597 191.0166 19.27644 190.33626 16.50836 192.7586 18.01082 195.18094 16.50836 194.5006 19.27644 196.67809 21.11597 193.83519 21.32426Z"/>
<path transform="matrix(1.00005,0,0,-1,30.47377,30.543999)" d="M235.27816-8.6347 234.20157-11.27403 231.35868-11.48233 233.53617-13.32185 232.8558-16.08994 235.27816-14.58748 237.7005-16.08994 237.02014-13.32185 239.19763-11.48233 236.35474-11.27403Z" fill="#ffffff"/>
<path transform="matrix(1.00005,0,0,-1,30.47377,30.543999)" stroke-width=".3985" stroke-linecap="butt" stroke-miterlimit="10" stroke-linejoin="miter" fill="none" stroke="#000000" d="M235.27816-8.6347 234.20157-11.27403 231.35868-11.48233 233.53617-13.32185 232.8558-16.08994 235.27816-14.58748 237.7005-16.08994 237.02014-13.32185 239.19763-11.48233 236.35474-11.27403Z"/>
<path transform="matrix(1.00005,0,0,-1,30.47377,30.543999)" d="M223.9396-4.38275 222.86302-7.0221 220.02013-7.2304 222.19762-9.0699 221.51726-11.83798 223.9396-10.33553 226.36196-11.83798 225.6816-9.0699 227.85909-7.2304 225.01619-7.0221Z" fill="#ffffff"/>
<path transform="matrix(1.00005,0,0,-1,30.47377,30.543999)" stroke-width=".3985" stroke-linecap="butt" stroke-miterlimit="10" stroke-linejoin="miter" fill="none" stroke="#000000" d="M223.9396-4.38275 222.86302-7.0221 220.02013-7.2304 222.19762-9.0699 221.51726-11.83798 223.9396-10.33553 226.36196-11.83798 225.6816-9.0699 227.85909-7.2304 225.01619-7.0221Z"/>
<path transform="matrix(1.00005,0,0,-1,30.47377,30.543999)" d="M233.86084 12.62505 232.78426 9.98572 229.94136 9.77742 232.11885 7.9379 231.43849 5.16982 233.86084 6.67227 236.28319 5.16982 235.60285 7.9379 237.78032 9.77742 234.93744 9.98572Z" fill="#ffffff"/>
<path transform="matrix(1.00005,0,0,-1,30.47377,30.543999)" stroke-width=".3985" stroke-linecap="butt" stroke-miterlimit="10" stroke-linejoin="miter" fill="none" stroke="#000000" d="M233.86084 12.62505 232.78426 9.98572 229.94136 9.77742 232.11885 7.9379 231.43849 5.16982 233.86084 6.67227 236.28319 5.16982 235.60285 7.9379 237.78032 9.77742 234.93744 9.98572Z"/>
</svg>
