<svg xmlns="http://www.w3.org/2000/svg" xmlns:xlink="http://www.w3.org/1999/xlink" xmlns:inkscape="http://www.inkscape.org/namespaces/inkscape" version="1.1" width="286" height="62" viewBox="0 0 286 62">
<path transform="matrix(1.00003,0,0,-1,30.842362,31.432)" stroke-width="1.19553" stroke-linecap="butt" stroke-miterlimit="10" stroke-linejoin="miter" fill="none" stroke="#000000" d="M28.3468 0C28.3468 15.6557 15.6557 28.3468 0 28.3468-15.6557 28.3468-28.3468 15.6557-28.3468 0-28.3468-15.6557-15.6557-28.3468 0-28.3468 15.6557-28.3468 28.3468-15.6557 28.3468 0ZM0 0"/>
<path transform="matrix(1.00003,0,0,-1,30.842362,31.432)" d="M0 28.3468V0L-24.5491-14.17339C-16.72147-27.7313 .6155-32.37674 14.17339-24.5491 27.7313-16.72147 32.37674 .6155 24.5491 14.17339 19.48625 22.94266 10.12613 28.3468 0 28.3468" fill="#9999ff"/>
<path transform="matrix(1.00003,0,0,-1,30.842362,31.432)" stroke-width=".3985" stroke-linecap="butt" stroke-miterlimit="10" stroke-linejoin="miter" fill="none" stroke="#000000" d="M0 28.3468V0L-24.5491-14.17339C-16.72147-27.7313 .6155-32.37674 14.17339-24.5491 27.7313-16.72147 32.37674 .6155 24.5491 14.17339 19.48625 22.94266 10.12613 28.3468 0 28.3468"/>
<path transform="matrix(1.00003,0,0,-1,30.842362,31.432)" stroke-width=".79701" stroke-linecap="butt" stroke-miterlimit="10" stroke-linejoin="miter" fill="none" stroke="#000000" d="M28.3468 0H-28.3468"/>
<path transform="matrix(1.00003,0,0,-1,30.842362,31.432)" stroke-width=".79701" stroke-linecap="butt" stroke-miterlimit="10" stroke-linejoin="miter" fill="none" stroke="#000000" d="M24.5491 14.17339-24.5491-14.17339"/>
<path transform="matrix(1.00003,0,0,-1,30.842362,31.432)" stroke-width=".79701" stroke-linecap="butt" stroke-miterlimit="10" stroke-linejoin="miter" fill="none" stroke="#000000" d="M14.17339 24.5491-14.17339-24.5491"/>
<path transform="matrix(1.00003,0,0,-1,30.842362,31.432)" stroke-width=".79701" stroke-linecap="butt" stroke-miterlimit="10" stroke-linejoin="miter" fill="none" stroke="#000000" d="M0 28.3468V-28.3468"/>
<path transform="matrix(1.00003,0,0,-1,30.842362,31.432)" stroke-width=".79701" stroke-linecap="butt" stroke-miterlimit="10" stroke-linejoin="miter" fill="none" stroke="#000000" d="M-14.17339 24.5491 14.17339-24.5491"/>
<path transform="matrix(1.00003,0,0,-1,30.842362,31.432)" stroke-width=".79701" stroke-linecap="butt" stroke-miterlimit="10" stroke-linejoin="miter" fill="none" stroke="#000000" d="M-24.5491 14.17339 24.5491-14.17339"/>
<path transform="matrix(1.00003,0,0,-1,30.842362,31.432)" d="M56.69362-28.3468H85.04042V28.3468H56.69362Z" fill="#9999ff"/>
<path transform="matrix(1.00003,0,0,-1,30.842362,31.432)" stroke-width=".3985" stroke-linecap="butt" stroke-miterlimit="10" stroke-linejoin="miter" fill="none" stroke="#000000" d="M56.69362-28.3468H85.04042V28.3468H56.69362Z"/>
<path transform="matrix(1.00003,0,0,-1,30.842362,31.432)" stroke-width="1.19553" stroke-linecap="butt" stroke-miterlimit="10" stroke-linejoin="miter" fill="none" stroke="#000000" d="M42.5202 28.3468V-28.3468H85.04042V28.3468Z"/>
<path transform="matrix(1.00003,0,0,-1,30.842362,31.432)" stroke-width=".79701" stroke-linecap="butt" stroke-miterlimit="10" stroke-linejoin="miter" fill="none" stroke="#000000" d="M56.69362 28.3468V-28.3468"/>
<path transform="matrix(1.00003,0,0,-1,30.842362,31.432)" stroke-width=".79701" stroke-linecap="butt" stroke-miterlimit="10" stroke-linejoin="miter" fill="none" stroke="#000000" d="M70.867 28.3468V-28.3468"/>
<path transform="matrix(1.00003,0,0,-1,30.842362,31.432)" stroke-width=".79701" stroke-linecap="butt" stroke-miterlimit="10" stroke-linejoin="miter" fill="none" stroke="#000000" d="M42.5202-14.17339H85.04042"/>
<path transform="matrix(1.00003,0,0,-1,30.842362,31.432)" stroke-width=".79701" stroke-linecap="butt" stroke-miterlimit="10" stroke-linejoin="miter" fill="none" stroke="#000000" d="M42.5202 0H85.04042"/>
<path transform="matrix(1.00003,0,0,-1,30.842362,31.432)" stroke-width=".79701" stroke-linecap="butt" stroke-miterlimit="10" stroke-linejoin="miter" fill="none" stroke="#000000" d="M42.5202 14.17339H85.04042"/>
<path transform="matrix(1.00003,0,0,-1,30.842362,31.432)" stroke-width="1.19553" stroke-linecap="butt" stroke-miterlimit="10" stroke-linejoin="miter" fill="none" stroke="#000000" d="M108.07219 21.2601C108.07219 24.19554 105.69261 26.57512 102.75717 26.57512 99.82173 26.57512 97.44215 24.19554 97.44215 21.2601 97.44215 18.32466 99.82173 15.94507 102.75717 15.94507 105.69261 15.94507 108.07219 18.32466 108.07219 21.2601ZM102.75717 21.2601"/>
<path transform="matrix(1.00003,0,0,-1,30.842362,31.432)" stroke-width="1.19553" stroke-linecap="butt" stroke-miterlimit="10" stroke-linejoin="miter" fill="none" stroke="#000000" d="M108.07219 7.08669C108.07219 10.02213 105.69261 12.4017 102.75717 12.4017 99.82173 12.4017 97.44215 10.02213 97.44215 7.08669 97.44215 4.15125 99.82173 1.77167 102.75717 1.77167 105.69261 1.77167 108.07219 4.15125 108.07219 7.08669ZM102.75717 7.08669"/>
<path transform="matrix(1.00003,0,0,-1,30.842362,31.432)" stroke-width="1.19553" stroke-linecap="butt" stroke-miterlimit="10" stroke-linejoin="miter" fill="none" stroke="#000000" d="M122.24559 21.2601C122.24559 24.19554 119.86601 26.57512 116.93057 26.57512 113.99513 26.57512 111.61555 24.19554 111.61555 21.2601 111.61555 18.32466 113.99513 15.94507 116.93057 15.94507 119.86601 15.94507 122.24559 18.32466 122.24559 21.2601ZM116.93057 21.2601"/>
<path transform="matrix(1.00003,0,0,-1,30.842362,31.432)" stroke-width="1.19553" stroke-linecap="butt" stroke-miterlimit="10" stroke-linejoin="miter" fill="none" stroke="#000000" d="M122.24559 7.08669C122.24559 10.02213 119.86601 12.4017 116.93057 12.4017 113.99513 12.4017 111.61555 10.02213 111.61555 7.08669 111.61555 4.15125 113.99513 1.77167 116.93057 1.77167 119.86601 1.77167 122.24559 4.15125 122.24559 7.08669ZM116.93057 7.08669"/>
<path transform="matrix(1.00003,0,0,-1,30.842362,31.432)" stroke-width="1.19553" stroke-linecap="butt" stroke-miterlimit="10" stroke-linejoin="miter" fill="none" stroke="#000000" d="M136.419 21.2601C136.419 24.19554 134.03943 26.57512 131.10399 26.57512 128.16855 26.57512 125.78896 24.19554 125.78896 21.2601 125.78896 18.32466 128.16855 15.94507 131.10399 15.94507 134.03943 15.94507 136.419 18.32466 136.419 21.2601ZM131.10399 21.2601"/>
<path transform="matrix(1.00003,0,0,-1,30.842362,31.432)" stroke-width="1.19553" stroke-linecap="butt" stroke-miterlimit="10" stroke-linejoin="miter" fill="none" stroke="#000000" d="M136.419 7.08669C136.419 10.02213 134.03943 12.4017 131.10399 12.4017 128.16855 12.4017 125.78896 10.02213 125.78896 7.08669 125.78896 4.15125 128.16855 1.77167 131.10399 1.77167 134.03943 1.77167 136.419 4.15125 136.419 7.08669ZM131.10399 7.08669"/>
<path transform="matrix(1.00003,0,0,-1,30.842362,31.432)" stroke-width="1.19553" stroke-linecap="butt" stroke-miterlimit="10" stroke-linejoin="miter" fill="none" stroke="#000000" d="M150.5924 21.2601C150.5924 24.19554 148.21282 26.57512 145.27738 26.57512 142.34194 26.57512 139.96236 24.19554 139.96236 21.2601 139.96236 18.32466 142.34194 15.94507 145.27738 15.94507 148.21282 15.94507 150.5924 18.32466 150.5924 21.2601ZM145.27738 21.2601"/>
<path transform="matrix(1.00003,0,0,-1,30.842362,31.432)" stroke-width="1.19553" stroke-linecap="butt" stroke-miterlimit="10" stroke-linejoin="miter" fill="none" stroke="#000000" d="M150.5924 7.08669C150.5924 10.02213 148.21282 12.4017 145.27738 12.4017 142.34194 12.4017 139.96236 10.02213 139.96236 7.08669 139.96236 4.15125 142.34194 1.77167 145.27738 1.77167 148.21282 1.77167 150.5924 4.15125 150.5924 7.08669ZM145.27738 7.08669"/>
<path transform="matrix(1.00003,0,0,-1,30.842362,31.432)" stroke-width="1.19553" stroke-linecap="butt" stroke-miterlimit="10" stroke-linejoin="miter" fill="none" stroke="#000000" d="M164.76581 21.2601C164.76581 24.19554 162.38623 26.57512 159.45079 26.57512 156.51535 26.57512 154.13578 24.19554 154.13578 21.2601 154.13578 18.32466 156.51535 15.94507 159.45079 15.94507 162.38623 15.94507 164.76581 18.32466 164.76581 21.2601ZM159.45079 21.2601"/>
<path transform="matrix(1.00003,0,0,-1,30.842362,31.432)" stroke-width="1.19553" stroke-linecap="butt" stroke-miterlimit="10" stroke-linejoin="miter" fill="none" stroke="#000000" d="M164.76581 7.08669C164.76581 10.02213 162.38623 12.4017 159.45079 12.4017 156.51535 12.4017 154.13578 10.02213 154.13578 7.08669 154.13578 4.15125 156.51535 1.77167 159.45079 1.77167 162.38623 1.77167 164.76581 4.15125 164.76581 7.08669ZM159.45079 7.08669"/>
<path transform="matrix(1.00003,0,0,-1,30.842362,31.432)" stroke-width="1.19553" stroke-linecap="butt" stroke-miterlimit="10" stroke-linejoin="miter" fill="none" stroke="#000000" d="M178.93921 21.2601C178.93921 24.19554 176.55963 26.57512 173.62419 26.57512 170.68875 26.57512 168.30918 24.19554 168.30918 21.2601 168.30918 18.32466 170.68875 15.94507 173.62419 15.94507 176.55963 15.94507 178.93921 18.32466 178.93921 21.2601ZM173.62419 21.2601"/>
<path transform="matrix(1.00003,0,0,-1,30.842362,31.432)" stroke-width="1.19553" stroke-linecap="butt" stroke-miterlimit="10" stroke-linejoin="miter" fill="none" stroke="#000000" d="M178.93921 7.08669C178.93921 10.02213 176.55963 12.4017 173.62419 12.4017 170.68875 12.4017 168.30918 10.02213 168.30918 7.08669 168.30918 4.15125 170.68875 1.77167 173.62419 1.77167 176.55963 1.77167 178.93921 4.15125 178.93921 7.08669ZM173.62419 7.08669"/>
<path transform="matrix(1.00003,0,0,-1,30.842362,31.432)" d="M136.419 21.2601C136.419 24.19554 134.03943 26.57512 131.10399 26.57512 128.16855 26.57512 125.78896 24.19554 125.78896 21.2601 125.78896 18.32466 128.16855 15.94507 131.10399 15.94507 134.03943 15.94507 136.419 18.32466 136.419 21.2601ZM131.10399 21.2601" fill="#9999ff"/>
<path transform="matrix(1.00003,0,0,-1,30.842362,31.432)" stroke-width=".3985" stroke-linecap="butt" stroke-miterlimit="10" stroke-linejoin="miter" fill="none" stroke="#000000" d="M136.419 21.2601C136.419 24.19554 134.03943 26.57512 131.10399 26.57512 128.16855 26.57512 125.78896 24.19554 125.78896 21.2601 125.78896 18.32466 128.16855 15.94507 131.10399 15.94507 134.03943 15.94507 136.419 18.32466 136.419 21.2601ZM131.10399 21.2601"/>
<path transform="matrix(1.00003,0,0,-1,30.842362,31.432)" d="M136.419 7.08669C136.419 10.02213 134.03943 12.4017 131.10399 12.4017 128.16855 12.4017 125.78896 10.02213 125.78896 7.08669 125.78896 4.15125 128.16855 1.77167 131.10399 1.77167 134.03943 1.77167 136.419 4.15125 136.419 7.08669ZM131.10399 7.08669" fill="#9999ff"/>
<path transform="matrix(1.00003,0,0,-1,30.842362,31.432)" stroke-width=".3985" stroke-linecap="butt" stroke-miterlimit="10" stroke-linejoin="miter" fill="none" stroke="#000000" d="M136.419 7.08669C136.419 10.02213 134.03943 12.4017 131.10399 12.4017 128.16855 12.4017 125.78896 10.02213 125.78896 7.08669 125.78896 4.15125 128.16855 1.77167 131.10399 1.77167 134.03943 1.77167 136.419 4.15125 136.419 7.08669ZM131.10399 7.08669"/>
<path transform="matrix(1.00003,0,0,-1,30.842362,31.432)" d="M150.5924 21.2601C150.5924 24.19554 148.21282 26.57512 145.27738 26.57512 142.34194 26.57512 139.96236 24.19554 139.96236 21.2601 139.96236 18.32466 142.34194 15.94507 145.27738 15.94507 148.21282 15.94507 150.5924 18.32466 150.5924 21.2601ZM145.27738 21.2601" fill="#9999ff"/>
<path transform="matrix(1.00003,0,0,-1,30.842362,31.432)" stroke-width=".3985" stroke-linecap="butt" stroke-miterlimit="10" stroke-linejoin="miter" fill="none" stroke="#000000" d="M150.5924 21.2601C150.5924 24.19554 148.21282 26.57512 145.27738 26.57512 142.34194 26.57512 139.96236 24.19554 139.96236 21.2601 139.96236 18.32466 142.34194 15.94507 145.27738 15.94507 148.21282 15.94507 150.5924 18.32466 150.5924 21.2601ZM145.27738 21.2601"/>
<path transform="matrix(1.00003,0,0,-1,30.842362,31.432)" d="M150.5924 7.08669C150.5924 10.02213 148.21282 12.4017 145.27738 12.4017 142.34194 12.4017 139.96236 10.02213 139.96236 7.08669 139.96236 4.15125 142.34194 1.77167 145.27738 1.77167 148.21282 1.77167 150.5924 4.15125 150.5924 7.08669ZM145.27738 7.08669" fill="#9999ff"/>
<path transform="matrix(1.00003,0,0,-1,30.842362,31.432)" stroke-width=".3985" stroke-linecap="butt" stroke-miterlimit="10" stroke-linejoin="miter" fill="none" stroke="#000000" d="M150.5924 7.08669C150.5924 10.02213 148.21282 12.4017 145.27738 12.4017 142.34194 12.4017 139.96236 10.02213 139.96236 7.08669 139.96236 4.15125 142.34194 1.77167 145.27738 1.77167 148.21282 1.77167 150.5924 4.15125 150.5924 7.08669ZM145.27738 7.08669"/>
<path transform="matrix(1.00003,0,0,-1,30.842362,31.432)" d="M164.76581 21.2601C164.76581 24.19554 162.38623 26.57512 159.45079 26.57512 156.51535 26.57512 154.13578 24.19554 154.13578 21.2601 154.13578 18.32466 156.51535 15.94507 159.45079 15.94507 162.38623 15.94507 164.76581 18.32466 164.76581 21.2601ZM159.45079 21.2601" fill="#9999ff"/>
<path transform="matrix(1.00003,0,0,-1,30.842362,31.432)" stroke-width=".3985" stroke-linecap="butt" stroke-miterlimit="10" stroke-linejoin="miter" fill="none" stroke="#000000" d="M164.76581 21.2601C164.76581 24.19554 162.38623 26.57512 159.45079 26.57512 156.51535 26.57512 154.13578 24.19554 154.13578 21.2601 154.13578 18.32466 156.51535 15.94507 159.45079 15.94507 162.38623 15.94507 164.76581 18.32466 164.76581 21.2601ZM159.45079 21.2601"/>
<path transform="matrix(1.00003,0,0,-1,30.842362,31.432)" d="M164.76581 7.08669C164.76581 10.02213 162.38623 12.4017 159.45079 12.4017 156.51535 12.4017 154.13578 10.02213 154.13578 7.08669 154.13578 4.15125 156.51535 1.77167 159.45079 1.77167 162.38623 1.77167 164.76581 4.15125 164.76581 7.08669ZM159.45079 7.08669" fill="#9999ff"/>
<path transform="matrix(1.00003,0,0,-1,30.842362,31.432)" stroke-width=".3985" stroke-linecap="butt" stroke-miterlimit="10" stroke-linejoin="miter" fill="none" stroke="#000000" d="M164.76581 7.08669C164.76581 10.02213 162.38623 12.4017 159.45079 12.4017 156.51535 12.4017 154.13578 10.02213 154.13578 7.08669 154.13578 4.15125 156.51535 1.77167 159.45079 1.77167 162.38623 1.77167 164.76581 4.15125 164.76581 7.08669ZM159.45079 7.08669"/>
<path transform="matrix(1.00003,0,0,-1,30.842362,31.432)" d="M178.93921 21.2601C178.93921 24.19554 176.55963 26.57512 173.62419 26.57512 170.68875 26.57512 168.30918 24.19554 168.30918 21.2601 168.30918 18.32466 170.68875 15.94507 173.62419 15.94507 176.55963 15.94507 178.93921 18.32466 178.93921 21.2601ZM173.62419 21.2601" fill="#9999ff"/>
<path transform="matrix(1.00003,0,0,-1,30.842362,31.432)" stroke-width=".3985" stroke-linecap="butt" stroke-miterlimit="10" stroke-linejoin="miter" fill="none" stroke="#000000" d="M178.93921 21.2601C178.93921 24.19554 176.55963 26.57512 173.62419 26.57512 170.68875 26.57512 168.30918 24.19554 168.30918 21.2601 168.30918 18.32466 170.68875 15.94507 173.62419 15.94507 176.55963 15.94507 178.93921 18.32466 178.93921 21.2601ZM173.62419 21.2601"/>
<path transform="matrix(1.00003,0,0,-1,30.842362,31.432)" d="M178.93921 7.08669C178.93921 10.02213 176.55963 12.4017 173.62419 12.4017 170.68875 12.4017 168.30918 10.02213 168.30918 7.08669 168.30918 4.15125 170.68875 1.77167 173.62419 1.77167 176.55963 1.77167 178.93921 4.15125 178.93921 7.08669ZM173.62419 7.08669" fill="#9999ff"/>
<path transform="matrix(1.00003,0,0,-1,30.842362,31.432)" stroke-width=".3985" stroke-linecap="butt" stroke-miterlimit="10" stroke-linejoin="miter" fill="none" stroke="#000000" d="M178.93921 7.08669C178.93921 10.02213 176.55963 12.4017 173.62419 12.4017 170.68875 12.4017 168.30918 10.02213 168.30918 7.08669 168.30918 4.15125 170.68875 1.77167 173.62419 1.77167 176.55963 1.77167 178.93921 4.15125 178.93921 7.08669ZM173.62419 7.08669"/>
<path transform="matrix(1.00003,0,0,-1,30.842362,31.432)" d="M124.01727-15.94505V-12.40172H180.71089V-15.94505Z" fill="#9999ff"/>
<path transform="matrix(1.00003,0,0,-1,30.842362,31.432)" stroke-width=".3985" stroke-linecap="butt" stroke-miterlimit="10" stroke-linejoin="miter" fill="none" stroke="#000000" d="M124.01727-15.94505V-12.40172H180.71089V-15.94505Z"/>
<path transform="matrix(1.00003,0,0,-1,30.842362,31.432)" stroke-width="1.19553" stroke-linecap="butt" stroke-miterlimit="10" stroke-linejoin="miter" fill="none" stroke="#000000" d="M95.67047-14.17339H180.71089"/>
<path transform="matrix(1.00003,0,0,-1,30.842362,31.432)" stroke-width=".3985" stroke-linecap="butt" stroke-miterlimit="10" stroke-linejoin="miter" fill="none" stroke="#000000" d="M95.67047-17.71674V-10.63004"/>
<path transform="matrix(1.00003,0,0,-1,30.842362,31.432)" stroke-width=".3985" stroke-linecap="butt" stroke-miterlimit="10" stroke-linejoin="miter" fill="none" stroke="#000000" d="M102.75717-17.71674V-10.63004"/>
<path transform="matrix(1.00003,0,0,-1,30.842362,31.432)" stroke-width=".3985" stroke-linecap="butt" stroke-miterlimit="10" stroke-linejoin="miter" fill="none" stroke="#000000" d="M109.84387-17.71674V-10.63004"/>
<path transform="matrix(1.00003,0,0,-1,30.842362,31.432)" stroke-width=".3985" stroke-linecap="butt" stroke-miterlimit="10" stroke-linejoin="miter" fill="none" stroke="#000000" d="M116.93057-17.71674V-10.63004"/>
<path transform="matrix(1.00003,0,0,-1,30.842362,31.432)" stroke-width=".3985" stroke-linecap="butt" stroke-miterlimit="10" stroke-linejoin="miter" fill="none" stroke="#000000" d="M124.01727-17.71674V-10.63004"/>
<path transform="matrix(1.00003,0,0,-1,30.842362,31.432)" stroke-width=".3985" stroke-linecap="butt" stroke-miterlimit="10" stroke-linejoin="miter" fill="none" stroke="#000000" d="M131.10399-17.71674V-10.63004"/>
<path transform="matrix(1.00003,0,0,-1,30.842362,31.432)" stroke-width=".3985" stroke-linecap="butt" stroke-miterlimit="10" stroke-linejoin="miter" fill="none" stroke="#000000" d="M138.19069-17.71674V-10.63004"/>
<path transform="matrix(1.00003,0,0,-1,30.842362,31.432)" stroke-width=".3985" stroke-linecap="butt" stroke-miterlimit="10" stroke-linejoin="miter" fill="none" stroke="#000000" d="M145.27738-17.71674V-10.63004"/>
<path transform="matrix(1.00003,0,0,-1,30.842362,31.432)" stroke-width=".3985" stroke-linecap="butt" stroke-miterlimit="10" stroke-linejoin="miter" fill="none" stroke="#000000" d="M152.36409-17.71674V-10.63004"/>
<path transform="matrix(1.00003,0,0,-1,30.842362,31.432)" stroke-width=".3985" stroke-linecap="butt" stroke-miterlimit="10" stroke-linejoin="miter" fill="none" stroke="#000000" d="M159.45079-17.71674V-10.63004"/>
<path transform="matrix(1.00003,0,0,-1,30.842362,31.432)" stroke-width=".3985" stroke-linecap="butt" stroke-miterlimit="10" stroke-linejoin="miter" fill="none" stroke="#000000" d="M166.53749-17.71674V-10.63004"/>
<path transform="matrix(1.00003,0,0,-1,30.842362,31.432)" stroke-width=".3985" stroke-linecap="butt" stroke-miterlimit="10" stroke-linejoin="miter" fill="none" stroke="#000000" d="M173.62419-17.71674V-10.63004"/>
<path transform="matrix(1.00003,0,0,-1,30.842362,31.432)" stroke-width=".3985" stroke-linecap="butt" stroke-miterlimit="10" stroke-linejoin="miter" fill="none" stroke="#000000" d="M180.71089-17.71674V-10.63004"/>
<path transform="matrix(1.00003,0,0,-1,30.842362,31.432)" d="M249.45157 28.21555 248.37499 25.57622 245.53209 25.36792 247.70957 23.5284 247.02922 20.76031 249.45157 22.26277 251.87392 20.76031 251.19356 23.5284 253.37105 25.36792 250.52816 25.57622Z" fill="#9999ff"/>
<path transform="matrix(1.00003,0,0,-1,30.842362,31.432)" stroke-width=".3985" stroke-linecap="butt" stroke-miterlimit="10" stroke-linejoin="miter" fill="none" stroke="#000000" d="M249.45157 28.21555 248.37499 25.57622 245.53209 25.36792 247.70957 23.5284 247.02922 20.76031 249.45157 22.26277 251.87392 20.76031 251.19356 23.5284 253.37105 25.36792 250.52816 25.57622Z"/>
<path transform="matrix(1.00003,0,0,-1,30.842362,31.432)" d="M219.68787 26.79823 218.61128 24.1589 215.76839 23.9506 217.94588 22.11108 217.26554 19.343 219.68787 20.84546 222.11022 19.343 221.42987 22.11108 223.60735 23.9506 220.76447 24.1589Z" fill="#9999ff"/>
<path transform="matrix(1.00003,0,0,-1,30.842362,31.432)" stroke-width=".3985" stroke-linecap="butt" stroke-miterlimit="10" stroke-linejoin="miter" fill="none" stroke="#000000" d="M219.68787 26.79823 218.61128 24.1589 215.76839 23.9506 217.94588 22.11108 217.26554 19.343 219.68787 20.84546 222.11022 19.343 221.42987 22.11108 223.60735 23.9506 220.76447 24.1589Z"/>
<path transform="matrix(1.00003,0,0,-1,30.842362,31.432)" d="M211.18396-14.30397 210.10738-16.94331 207.26448-17.15161 209.44197-18.99112 208.76161-21.7592 211.18396-20.25674 213.60631-21.7592 212.92595-18.99112 215.10344-17.15161 212.26055-16.94331Z" fill="#9999ff"/>
<path transform="matrix(1.00003,0,0,-1,30.842362,31.432)" stroke-width=".3985" stroke-linecap="butt" stroke-miterlimit="10" stroke-linejoin="miter" fill="none" stroke="#000000" d="M211.18396-14.30397 210.10738-16.94331 207.26448-17.15161 209.44197-18.99112 208.76161-21.7592 211.18396-20.25674 213.60631-21.7592 212.92595-18.99112 215.10344-17.15161 212.26055-16.94331Z"/>
<path transform="matrix(1.00003,0,0,-1,30.842362,31.432)" d="M240.94766 25.3809 239.87107 22.74158 237.02817 22.53328 239.20566 20.69376 238.52532 17.92567 240.94766 19.42813 243.37 17.92567 242.68965 20.69376 244.86714 22.53328 242.02425 22.74158Z" fill="#9999ff"/>
<path transform="matrix(1.00003,0,0,-1,30.842362,31.432)" stroke-width=".3985" stroke-linecap="butt" stroke-miterlimit="10" stroke-linejoin="miter" fill="none" stroke="#000000" d="M240.94766 25.3809 239.87107 22.74158 237.02817 22.53328 239.20566 20.69376 238.52532 17.92567 240.94766 19.42813 243.37 17.92567 242.68965 20.69376 244.86714 22.53328 242.02425 22.74158Z"/>
<path transform="matrix(1.00003,0,0,-1,30.842362,31.432)" d="M233.86106-17.13861 232.78447-19.77795 229.94158-19.98625 232.11907-21.82576 231.4387-24.59384 233.86106-23.09138 236.2834-24.59384 235.60306-21.82576 237.78054-19.98625 234.93764-19.77795Z" fill="#9999ff"/>
<path transform="matrix(1.00003,0,0,-1,30.842362,31.432)" stroke-width=".3985" stroke-linecap="butt" stroke-miterlimit="10" stroke-linejoin="miter" fill="none" stroke="#000000" d="M233.86106-17.13861 232.78447-19.77795 229.94158-19.98625 232.11907-21.82576 231.4387-24.59384 233.86106-23.09138 236.2834-24.59384 235.60306-21.82576 237.78054-19.98625 234.93764-19.77795Z"/>
<path transform="matrix(1.00003,0,0,-1,30.842362,31.432)" d="M215.43592-11.46935 214.35932-14.10867 211.51644-14.31697 213.69391-16.1565 213.01357-18.92458 215.43592-17.42212 217.85825-18.92458 217.1779-16.1565 219.3554-14.31697 216.5125-14.10867Z" fill="#9999ff"/>
<path transform="matrix(1.00003,0,0,-1,30.842362,31.432)" stroke-width=".3985" stroke-linecap="butt" stroke-miterlimit="10" stroke-linejoin="miter" fill="none" stroke="#000000" d="M215.43592-11.46935 214.35932-14.10867 211.51644-14.31697 213.69391-16.1565 213.01357-18.92458 215.43592-17.42212 217.85825-18.92458 217.1779-16.1565 219.3554-14.31697 216.5125-14.10867Z"/>
<path transform="matrix(1.00003,0,0,-1,30.842362,31.432)" d="M246.61693 18.29433 245.54035 15.65498 242.69745 15.44669 244.87494 13.60718 244.19458 10.8391 246.61693 12.34155 249.03928 10.8391 248.35892 13.60718 250.5364 15.44669 247.69351 15.65498Z" fill="#9999ff"/>
<path transform="matrix(1.00003,0,0,-1,30.842362,31.432)" stroke-width=".3985" stroke-linecap="butt" stroke-miterlimit="10" stroke-linejoin="miter" fill="none" stroke="#000000" d="M246.61693 18.29433 245.54035 15.65498 242.69745 15.44669 244.87494 13.60718 244.19458 10.8391 246.61693 12.34155 249.03928 10.8391 248.35892 13.60718 250.5364 15.44669 247.69351 15.65498Z"/>
<path transform="matrix(1.00003,0,0,-1,30.842362,31.432)" d="M229.60912 29.63287 228.53252 26.99353 225.68962 26.78523 227.86711 24.94572 227.18677 22.17764 229.60912 23.6801 232.03145 22.17764 231.3511 24.94572 233.5286 26.78523 230.6857 26.99353Z" fill="#9999ff"/>
<path transform="matrix(1.00003,0,0,-1,30.842362,31.432)" stroke-width=".3985" stroke-linecap="butt" stroke-miterlimit="10" stroke-linejoin="miter" fill="none" stroke="#000000" d="M229.60912 29.63287 228.53252 26.99353 225.68962 26.78523 227.86711 24.94572 227.18677 22.17764 229.60912 23.6801 232.03145 22.17764 231.3511 24.94572 233.5286 26.78523 230.6857 26.99353Z"/>
<path transform="matrix(1.00003,0,0,-1,30.842362,31.432)" d="M218.27034 1.2865 217.19374-1.35281 214.35085-1.56111 216.52834-3.40063 215.84799-6.16872 218.27034-4.66626 220.69268-6.16872 220.01233-3.40063 222.18982-1.56111 219.34693-1.35281Z" fill="#ffffff"/>
<path transform="matrix(1.00003,0,0,-1,30.842362,31.432)" stroke-width=".3985" stroke-linecap="butt" stroke-miterlimit="10" stroke-linejoin="miter" fill="none" stroke="#000000" d="M218.27034 1.2865 217.19374-1.35281 214.35085-1.56111 216.52834-3.40063 215.84799-6.16872 218.27034-4.66626 220.69268-6.16872 220.01233-3.40063 222.18982-1.56111 219.34693-1.35281Z"/>
<path transform="matrix(1.00003,0,0,-1,30.842362,31.432)" d="M202.67983 9.79042 201.60323 7.15108 198.76035 6.94278 200.93782 5.10327 200.25748 2.33519 202.67983 3.83765 205.10218 2.33519 204.42182 5.10327 206.5993 6.94278 203.75641 7.15108Z" fill="#ffffff"/>
<path transform="matrix(1.00003,0,0,-1,30.842362,31.432)" stroke-width=".3985" stroke-linecap="butt" stroke-miterlimit="10" stroke-linejoin="miter" fill="none" stroke="#000000" d="M202.67983 9.79042 201.60323 7.15108 198.76035 6.94278 200.93782 5.10327 200.25748 2.33519 202.67983 3.83765 205.10218 2.33519 204.42182 5.10327 206.5993 6.94278 203.75641 7.15108Z"/>
<path transform="matrix(1.00003,0,0,-1,30.842362,31.432)" d="M214.01839 19.71164 212.9418 17.0723 210.0989 16.864 212.27639 15.02449 211.59604 12.25641 214.01839 13.75887 216.44074 12.25641 215.76038 15.02449 217.93787 16.864 215.09497 17.0723Z" fill="#ffffff"/>
<path transform="matrix(1.00003,0,0,-1,30.842362,31.432)" stroke-width=".3985" stroke-linecap="butt" stroke-miterlimit="10" stroke-linejoin="miter" fill="none" stroke="#000000" d="M214.01839 19.71164 212.9418 17.0723 210.0989 16.864 212.27639 15.02449 211.59604 12.25641 214.01839 13.75887 216.44074 12.25641 215.76038 15.02449 217.93787 16.864 215.09497 17.0723Z"/>
<path transform="matrix(1.00003,0,0,-1,30.842362,31.432)" d="M226.77425 14.04236 225.69765 11.40303 222.85477 11.19473 225.03224 9.35521 224.3519 6.58713 226.77425 8.08958 229.1966 6.58713 228.51624 9.35521 230.69373 11.19473 227.85083 11.40303Z" fill="#ffffff"/>
<path transform="matrix(1.00003,0,0,-1,30.842362,31.432)" stroke-width=".3985" stroke-linecap="butt" stroke-miterlimit="10" stroke-linejoin="miter" fill="none" stroke="#000000" d="M226.77425 14.04236 225.69765 11.40303 222.85477 11.19473 225.03224 9.35521 224.3519 6.58713 226.77425 8.08958 229.1966 6.58713 228.51624 9.35521 230.69373 11.19473 227.85083 11.40303Z"/>
</svg>
