<svg xmlns="http://www.w3.org/2000/svg" xmlns:xlink="http://www.w3.org/1999/xlink" xmlns:inkscape="http://www.inkscape.org/namespaces/inkscape" version="1.1" width="288" height="89" viewBox="0 0 288 89">
<path transform="matrix(1.00006,0,0,-1.00002,144.03549,44.51857)" stroke-width=".79701" stroke-linecap="butt" stroke-miterlimit="10" stroke-linejoin="miter" fill="none" stroke="#000000" d="M42.5202 0C42.5202 23.48355 23.48355 42.5202 0 42.5202-23.48355 42.5202-42.5202 23.48355-42.5202 0-42.5202-23.48355-23.48355-42.5202 0-42.5202 23.48355-42.5202 42.5202-23.48355 42.5202 0ZM0 0"/>
<path transform="matrix(1.00006,0,0,-1.00002,144.03549,44.51857)" d="M0 42.5202V0L-30.06635-30.06635C-46.67125-13.46144-46.67125 13.46144-30.06635 30.06635-22.09381 38.03886-11.27495 42.5202 0 42.5202" fill="#9999ff"/>
<path transform="matrix(1.00006,0,0,-1.00002,144.03549,44.51857)" stroke-width=".79701" stroke-linecap="butt" stroke-miterlimit="10" stroke-linejoin="miter" fill="none" stroke="#000000" d="M0 42.5202V0L-30.06635-30.06635C-46.67125-13.46144-46.67125 13.46144-30.06635 30.06635-22.09381 38.03886-11.27495 42.5202 0 42.5202"/>
<path transform="matrix(1.00006,0,0,-1.00002,144.03549,44.51857)" stroke-width=".79701" stroke-linecap="butt" stroke-miterlimit="10" stroke-linejoin="miter" fill="none" stroke="#000000" d="M42.5202 0H-42.5202"/>
<path transform="matrix(1.00006,0,0,-1.00002,144.03549,44.51857)" stroke-width=".79701" stroke-linecap="butt" stroke-miterlimit="10" stroke-linejoin="miter" fill="none" stroke="#000000" d="M30.06635 30.06635-30.06635-30.06635"/>
<path transform="matrix(1.00006,0,0,-1.00002,144.03549,44.51857)" stroke-width=".79701" stroke-linecap="butt" stroke-miterlimit="10" stroke-linejoin="miter" fill="none" stroke="#000000" d="M0 42.5202V-42.5202"/>
<path transform="matrix(1.00006,0,0,-1.00002,144.03549,44.51857)" stroke-width=".79701" stroke-linecap="butt" stroke-miterlimit="10" stroke-linejoin="miter" fill="none" stroke="#000000" d="M-30.06635 30.06635 30.06635-30.06635"/>
<path transform="matrix(1.00006,0,0,-1.00002,144.03549,44.51857)" d="M-56.69362 0C-56.69362 23.48355-75.73026 42.5202-99.21382 42.5202-122.69737 42.5202-141.73403 23.48355-141.73403 0-141.73403-23.48355-122.69737-42.5202-99.21382-42.5202-75.73026-42.5202-56.69362-23.48355-56.69362 0ZM-99.21382 0" fill="#9999ff"/>
<path transform="matrix(1.00006,0,0,-1.00002,144.03549,44.51857)" stroke-width=".79701" stroke-linecap="butt" stroke-miterlimit="10" stroke-linejoin="miter" fill="none" stroke="#000000" d="M-56.69362 0C-56.69362 23.48355-75.73026 42.5202-99.21382 42.5202-122.69737 42.5202-141.73403 23.48355-141.73403 0-141.73403-23.48355-122.69737-42.5202-99.21382-42.5202-75.73026-42.5202-56.69362-23.48355-56.69362 0ZM-99.21382 0"/>
<path transform="matrix(1.00006,0,0,-1.00002,144.03549,44.51857)" stroke-width=".79701" stroke-linecap="butt" stroke-miterlimit="10" stroke-linejoin="miter" fill="none" stroke="#000000" d="M-99.21382 0-69.14745 30.06635"/>
<path transform="matrix(1.00006,0,0,-1.00002,144.03549,44.51857)" stroke-width=".79701" stroke-linecap="butt" stroke-miterlimit="10" stroke-linejoin="miter" fill="none" stroke="#000000" d="M-99.21382 0-129.28017 30.06635"/>
<path transform="matrix(1.00006,0,0,-1.00002,144.03549,44.51857)" stroke-width=".79701" stroke-linecap="butt" stroke-miterlimit="10" stroke-linejoin="miter" fill="none" stroke="#000000" d="M-99.21382 0-69.14745-30.06635"/>
<path transform="matrix(1.00006,0,0,-1.00002,144.03549,44.51857)" stroke-width=".79701" stroke-linecap="butt" stroke-miterlimit="10" stroke-linejoin="miter" fill="none" stroke="#000000" d="M-99.21382 0-129.28017-30.06635"/>
<path transform="matrix(1.00006,0,0,-1.00002,144.03549,44.51857)" stroke-width=".79701" stroke-linecap="butt" stroke-miterlimit="10" stroke-linejoin="miter" fill="none" stroke="#000000" d="M-141.73404 0H-56.69362"/>
<path transform="matrix(1.00006,0,0,-1.00002,144.03549,44.51857)" stroke-width=".79701" stroke-linecap="butt" stroke-miterlimit="10" stroke-linejoin="miter" fill="none" stroke="#000000" d="M-99.21382-42.5202V42.5202"/>
<path transform="matrix(1.00006,0,0,-1.00002,144.03549,44.51857)" d="M141.73403 0C141.73403 23.48355 122.69737 42.5202 99.21382 42.5202 75.73026 42.5202 56.69362 23.48355 56.69362 0 56.69362-23.48355 75.73026-42.5202 99.21382-42.5202 122.69737-42.5202 141.73403-23.48355 141.73403 0ZM99.21382 0" fill="#9999ff"/>
<path transform="matrix(1.00006,0,0,-1.00002,144.03549,44.51857)" stroke-width=".79701" stroke-linecap="butt" stroke-miterlimit="10" stroke-linejoin="miter" fill="none" stroke="#000000" d="M141.73403 0C141.73403 23.48355 122.69737 42.5202 99.21382 42.5202 75.73026 42.5202 56.69362 23.48355 56.69362 0 56.69362-23.48355 75.73026-42.5202 99.21382-42.5202 122.69737-42.5202 141.73403-23.48355 141.73403 0ZM99.21382 0"/>
<path transform="matrix(1.00006,0,0,-1.00002,144.03549,44.51857)" stroke-width=".79701" stroke-linecap="butt" stroke-miterlimit="10" stroke-linejoin="miter" fill="none" stroke="#000000" d="M99.21382 0 129.28017 30.06635"/>
<path transform="matrix(1.00006,0,0,-1.00002,144.03549,44.51857)" stroke-width=".79701" stroke-linecap="butt" stroke-miterlimit="10" stroke-linejoin="miter" fill="none" stroke="#000000" d="M99.21382 0 69.14745 30.06635"/>
<path transform="matrix(1.00006,0,0,-1.00002,144.03549,44.51857)" stroke-width=".79701" stroke-linecap="butt" stroke-miterlimit="10" stroke-linejoin="miter" fill="none" stroke="#000000" d="M99.21382 0 129.28017-30.06635"/>
<path transform="matrix(1.00006,0,0,-1.00002,144.03549,44.51857)" stroke-width=".79701" stroke-linecap="butt" stroke-miterlimit="10" stroke-linejoin="miter" fill="none" stroke="#000000" d="M99.21382 0 69.14745-30.06635"/>
<path transform="matrix(1.00006,0,0,-1.00002,144.03549,44.51857)" stroke-width=".79701" stroke-linecap="butt" stroke-miterlimit="10" stroke-linejoin="miter" fill="none" stroke="#000000" d="M141.73404 0H56.69362"/>
<path transform="matrix(1.00006,0,0,-1.00002,144.03549,44.51857)" stroke-width=".79701" stroke-linecap="butt" stroke-miterlimit="10" stroke-linejoin="miter" fill="none" stroke="#000000" d="M99.21382-42.5202V42.5202"/>
</svg>
