<svg xmlns="http://www.w3.org/2000/svg" xmlns:xlink="http://www.w3.org/1999/xlink" xmlns:inkscape="http://www.inkscape.org/namespaces/inkscape" version="1.1" width="231" height="231" viewBox="0 0 231 231">
<path transform="matrix(1.00005,0,0,-1.00003,115.88583,115.58699)" stroke-width="1.19553" stroke-linecap="butt" stroke-miterlimit="10" stroke-linejoin="miter" fill="none" stroke="#000000" d="M113.38724 0C113.38724 62.62283 62.62283 113.38724 0 113.38724-62.62283 113.38724-113.38724 62.62283-113.38724 0-113.38724-62.62283-62.62283-113.38724 0-113.38724 62.62283-113.38724 113.38724-62.62283 113.38724 0ZM0 0"/>
<path transform="matrix(1.00005,0,0,-1.00003,115.88583,115.58699)" d="M0 113.38724V0L-98.19649-56.69362C-66.88593-110.92522 2.46202-129.50705 56.69362-98.19649 110.92522-66.88593 129.50705 2.46202 98.19649 56.69362 77.94507 91.7707 40.50456 113.38724 0 113.38724" fill="#9999ff"/>
<path transform="matrix(1.00005,0,0,-1.00003,115.88583,115.58699)" stroke-width=".3985" stroke-linecap="butt" stroke-miterlimit="10" stroke-linejoin="miter" fill="none" stroke="#000000" d="M0 113.38724V0L-98.19649-56.69362C-66.88593-110.92522 2.46202-129.50705 56.69362-98.19649 110.92522-66.88593 129.50705 2.46202 98.19649 56.69362 77.94507 91.7707 40.50456 113.38724 0 113.38724"/>
<path transform="matrix(1.00005,0,0,-1.00003,115.88583,115.58699)" stroke-width=".79701" stroke-linecap="butt" stroke-miterlimit="10" stroke-linejoin="miter" fill="none" stroke="#000000" d="M113.38724 0H-113.38724"/>
<path transform="matrix(1.00005,0,0,-1.00003,115.88583,115.58699)" stroke-width=".79701" stroke-linecap="butt" stroke-miterlimit="10" stroke-linejoin="miter" fill="none" stroke="#000000" d="M98.19649 56.69362-98.19649-56.69362"/>
<path transform="matrix(1.00005,0,0,-1.00003,115.88583,115.58699)" stroke-width=".79701" stroke-linecap="butt" stroke-miterlimit="10" stroke-linejoin="miter" fill="none" stroke="#000000" d="M56.69362 98.19649-56.69362-98.19649"/>
<path transform="matrix(1.00005,0,0,-1.00003,115.88583,115.58699)" stroke-width=".79701" stroke-linecap="butt" stroke-miterlimit="10" stroke-linejoin="miter" fill="none" stroke="#000000" d="M0 113.38724V-113.38724"/>
<path transform="matrix(1.00005,0,0,-1.00003,115.88583,115.58699)" stroke-width=".79701" stroke-linecap="butt" stroke-miterlimit="10" stroke-linejoin="miter" fill="none" stroke="#000000" d="M-56.69362 98.19649 56.69362-98.19649"/>
<path transform="matrix(1.00005,0,0,-1.00003,115.88583,115.58699)" stroke-width=".79701" stroke-linecap="butt" stroke-miterlimit="10" stroke-linejoin="miter" fill="none" stroke="#000000" d="M-98.19649 56.69362 98.19649-56.69362"/>
</svg>
