<svg xmlns="http://www.w3.org/2000/svg" xmlns:xlink="http://www.w3.org/1999/xlink" xmlns:inkscape="http://www.inkscape.org/namespaces/inkscape" version="1.1" width="284" height="68" viewBox="0 0 284 68">
<path transform="matrix(1.00009,0,0,-1.00009,30.475388,34.268644)" stroke-width="1.19553" stroke-linecap="butt" stroke-miterlimit="10" stroke-linejoin="miter" fill="none" stroke="#000000" d="M28.3468 0C28.3468 15.6557 15.6557 28.3468 0 28.3468-15.6557 28.3468-28.3468 15.6557-28.3468 0-28.3468-15.6557-15.6557-28.3468 0-28.3468 15.6557-28.3468 28.3468-15.6557 28.3468 0ZM0 0"/>
<path transform="matrix(1.00009,0,0,-1.00009,30.475388,34.268644)" d="M0 28.3468V0L-24.5491-14.17339C-32.37674-.6155-27.7313 16.72147-14.17339 24.5491-9.86531 27.0362-4.97461 28.3468 0 28.3468" fill="#9999ff"/>
<path transform="matrix(1.00009,0,0,-1.00009,30.475388,34.268644)" stroke-width=".3985" stroke-linecap="butt" stroke-miterlimit="10" stroke-linejoin="miter" fill="none" stroke="#000000" d="M0 28.3468V0L-24.5491-14.17339C-32.37674-.6155-27.7313 16.72147-14.17339 24.5491-9.86531 27.0362-4.97461 28.3468 0 28.3468"/>
<path transform="matrix(1.00009,0,0,-1.00009,30.475388,34.268644)" stroke-width=".79701" stroke-linecap="butt" stroke-miterlimit="10" stroke-linejoin="miter" fill="none" stroke="#000000" d="M28.3468 0H-28.3468"/>
<path transform="matrix(1.00009,0,0,-1.00009,30.475388,34.268644)" stroke-width=".79701" stroke-linecap="butt" stroke-miterlimit="10" stroke-linejoin="miter" fill="none" stroke="#000000" d="M24.5491 14.17339-24.5491-14.17339"/>
<path transform="matrix(1.00009,0,0,-1.00009,30.475388,34.268644)" stroke-width=".79701" stroke-linecap="butt" stroke-miterlimit="10" stroke-linejoin="miter" fill="none" stroke="#000000" d="M14.17339 24.5491-14.17339-24.5491"/>
<path transform="matrix(1.00009,0,0,-1.00009,30.475388,34.268644)" stroke-width=".79701" stroke-linecap="butt" stroke-miterlimit="10" stroke-linejoin="miter" fill="none" stroke="#000000" d="M0 28.3468V-28.3468"/>
<path transform="matrix(1.00009,0,0,-1.00009,30.475388,34.268644)" stroke-width=".79701" stroke-linecap="butt" stroke-miterlimit="10" stroke-linejoin="miter" fill="none" stroke="#000000" d="M-14.17339 24.5491 14.17339-24.5491"/>
<path transform="matrix(1.00009,0,0,-1.00009,30.475388,34.268644)" stroke-width=".79701" stroke-linecap="butt" stroke-miterlimit="10" stroke-linejoin="miter" fill="none" stroke="#000000" d="M-24.5491 14.17339 24.5491-14.17339"/>
<path transform="matrix(1.00009,0,0,-1.00009,30.475388,34.268644)" d="M56.69362-28.3468H42.5202V28.3468H56.69362Z" fill="#9999ff"/>
<path transform="matrix(1.00009,0,0,-1.00009,30.475388,34.268644)" stroke-width=".3985" stroke-linecap="butt" stroke-miterlimit="10" stroke-linejoin="miter" fill="none" stroke="#000000" d="M56.69362-28.3468H42.5202V28.3468H56.69362Z"/>
<path transform="matrix(1.00009,0,0,-1.00009,30.475388,34.268644)" stroke-width="1.19553" stroke-linecap="butt" stroke-miterlimit="10" stroke-linejoin="miter" fill="none" stroke="#000000" d="M42.5202 28.3468V-28.3468H85.04042V28.3468Z"/>
<path transform="matrix(1.00009,0,0,-1.00009,30.475388,34.268644)" stroke-width=".79701" stroke-linecap="butt" stroke-miterlimit="10" stroke-linejoin="miter" fill="none" stroke="#000000" d="M56.69362 28.3468V-28.3468"/>
<path transform="matrix(1.00009,0,0,-1.00009,30.475388,34.268644)" stroke-width=".79701" stroke-linecap="butt" stroke-miterlimit="10" stroke-linejoin="miter" fill="none" stroke="#000000" d="M70.867 28.3468V-28.3468"/>
<path transform="matrix(1.00009,0,0,-1.00009,30.475388,34.268644)" stroke-width=".79701" stroke-linecap="butt" stroke-miterlimit="10" stroke-linejoin="miter" fill="none" stroke="#000000" d="M42.5202-14.17339H85.04042"/>
<path transform="matrix(1.00009,0,0,-1.00009,30.475388,34.268644)" stroke-width=".79701" stroke-linecap="butt" stroke-miterlimit="10" stroke-linejoin="miter" fill="none" stroke="#000000" d="M42.5202 0H85.04042"/>
<path transform="matrix(1.00009,0,0,-1.00009,30.475388,34.268644)" stroke-width=".79701" stroke-linecap="butt" stroke-miterlimit="10" stroke-linejoin="miter" fill="none" stroke="#000000" d="M42.5202 14.17339H85.04042"/>
<path transform="matrix(1.00009,0,0,-1.00009,30.475388,34.268644)" stroke-width="1.19553" stroke-linecap="butt" stroke-miterlimit="10" stroke-linejoin="miter" fill="none" stroke="#000000" d="M108.07219 21.2601C108.07219 24.19554 105.69261 26.57512 102.75717 26.57512 99.82173 26.57512 97.44215 24.19554 97.44215 21.2601 97.44215 18.32466 99.82173 15.94507 102.75717 15.94507 105.69261 15.94507 108.07219 18.32466 108.07219 21.2601ZM102.75717 21.2601"/>
<path transform="matrix(1.00009,0,0,-1.00009,30.475388,34.268644)" stroke-width="1.19553" stroke-linecap="butt" stroke-miterlimit="10" stroke-linejoin="miter" fill="none" stroke="#000000" d="M108.07219 7.08669C108.07219 10.02213 105.69261 12.4017 102.75717 12.4017 99.82173 12.4017 97.44215 10.02213 97.44215 7.08669 97.44215 4.15125 99.82173 1.77167 102.75717 1.77167 105.69261 1.77167 108.07219 4.15125 108.07219 7.08669ZM102.75717 7.08669"/>
<path transform="matrix(1.00009,0,0,-1.00009,30.475388,34.268644)" stroke-width="1.19553" stroke-linecap="butt" stroke-miterlimit="10" stroke-linejoin="miter" fill="none" stroke="#000000" d="M122.24559 21.2601C122.24559 24.19554 119.86601 26.57512 116.93057 26.57512 113.99513 26.57512 111.61555 24.19554 111.61555 21.2601 111.61555 18.32466 113.99513 15.94507 116.93057 15.94507 119.86601 15.94507 122.24559 18.32466 122.24559 21.2601ZM116.93057 21.2601"/>
<path transform="matrix(1.00009,0,0,-1.00009,30.475388,34.268644)" stroke-width="1.19553" stroke-linecap="butt" stroke-miterlimit="10" stroke-linejoin="miter" fill="none" stroke="#000000" d="M122.24559 7.08669C122.24559 10.02213 119.86601 12.4017 116.93057 12.4017 113.99513 12.4017 111.61555 10.02213 111.61555 7.08669 111.61555 4.15125 113.99513 1.77167 116.93057 1.77167 119.86601 1.77167 122.24559 4.15125 122.24559 7.08669ZM116.93057 7.08669"/>
<path transform="matrix(1.00009,0,0,-1.00009,30.475388,34.268644)" stroke-width="1.19553" stroke-linecap="butt" stroke-miterlimit="10" stroke-linejoin="miter" fill="none" stroke="#000000" d="M136.419 21.2601C136.419 24.19554 134.03943 26.57512 131.10399 26.57512 128.16855 26.57512 125.78896 24.19554 125.78896 21.2601 125.78896 18.32466 128.16855 15.94507 131.10399 15.94507 134.03943 15.94507 136.419 18.32466 136.419 21.2601ZM131.10399 21.2601"/>
<path transform="matrix(1.00009,0,0,-1.00009,30.475388,34.268644)" stroke-width="1.19553" stroke-linecap="butt" stroke-miterlimit="10" stroke-linejoin="miter" fill="none" stroke="#000000" d="M136.419 7.08669C136.419 10.02213 134.03943 12.4017 131.10399 12.4017 128.16855 12.4017 125.78896 10.02213 125.78896 7.08669 125.78896 4.15125 128.16855 1.77167 131.10399 1.77167 134.03943 1.77167 136.419 4.15125 136.419 7.08669ZM131.10399 7.08669"/>
<path transform="matrix(1.00009,0,0,-1.00009,30.475388,34.268644)" stroke-width="1.19553" stroke-linecap="butt" stroke-miterlimit="10" stroke-linejoin="miter" fill="none" stroke="#000000" d="M150.5924 21.2601C150.5924 24.19554 148.21282 26.57512 145.27738 26.57512 142.34194 26.57512 139.96236 24.19554 139.96236 21.2601 139.96236 18.32466 142.34194 15.94507 145.27738 15.94507 148.21282 15.94507 150.5924 18.32466 150.5924 21.2601ZM145.27738 21.2601"/>
<path transform="matrix(1.00009,0,0,-1.00009,30.475388,34.268644)" stroke-width="1.19553" stroke-linecap="butt" stroke-miterlimit="10" stroke-linejoin="miter" fill="none" stroke="#000000" d="M150.5924 7.08669C150.5924 10.02213 148.21282 12.4017 145.27738 12.4017 142.34194 12.4017 139.96236 10.02213 139.96236 7.08669 139.96236 4.15125 142.34194 1.77167 145.27738 1.77167 148.21282 1.77167 150.5924 4.15125 150.5924 7.08669ZM145.27738 7.08669"/>
<path transform="matrix(1.00009,0,0,-1.00009,30.475388,34.268644)" stroke-width="1.19553" stroke-linecap="butt" stroke-miterlimit="10" stroke-linejoin="miter" fill="none" stroke="#000000" d="M164.76581 21.2601C164.76581 24.19554 162.38623 26.57512 159.45079 26.57512 156.51535 26.57512 154.13578 24.19554 154.13578 21.2601 154.13578 18.32466 156.51535 15.94507 159.45079 15.94507 162.38623 15.94507 164.76581 18.32466 164.76581 21.2601ZM159.45079 21.2601"/>
<path transform="matrix(1.00009,0,0,-1.00009,30.475388,34.268644)" stroke-width="1.19553" stroke-linecap="butt" stroke-miterlimit="10" stroke-linejoin="miter" fill="none" stroke="#000000" d="M164.76581 7.08669C164.76581 10.02213 162.38623 12.4017 159.45079 12.4017 156.51535 12.4017 154.13578 10.02213 154.13578 7.08669 154.13578 4.15125 156.51535 1.77167 159.45079 1.77167 162.38623 1.77167 164.76581 4.15125 164.76581 7.08669ZM159.45079 7.08669"/>
<path transform="matrix(1.00009,0,0,-1.00009,30.475388,34.268644)" stroke-width="1.19553" stroke-linecap="butt" stroke-miterlimit="10" stroke-linejoin="miter" fill="none" stroke="#000000" d="M178.93921 21.2601C178.93921 24.19554 176.55963 26.57512 173.62419 26.57512 170.68875 26.57512 168.30918 24.19554 168.30918 21.2601 168.30918 18.32466 170.68875 15.94507 173.62419 15.94507 176.55963 15.94507 178.93921 18.32466 178.93921 21.2601ZM173.62419 21.2601"/>
<path transform="matrix(1.00009,0,0,-1.00009,30.475388,34.268644)" stroke-width="1.19553" stroke-linecap="butt" stroke-miterlimit="10" stroke-linejoin="miter" fill="none" stroke="#000000" d="M178.93921 7.08669C178.93921 10.02213 176.55963 12.4017 173.62419 12.4017 170.68875 12.4017 168.30918 10.02213 168.30918 7.08669 168.30918 4.15125 170.68875 1.77167 173.62419 1.77167 176.55963 1.77167 178.93921 4.15125 178.93921 7.08669ZM173.62419 7.08669"/>
<path transform="matrix(1.00009,0,0,-1.00009,30.475388,34.268644)" d="M108.07219 21.2601C108.07219 24.19554 105.69261 26.57512 102.75717 26.57512 99.82173 26.57512 97.44215 24.19554 97.44215 21.2601 97.44215 18.32466 99.82173 15.94507 102.75717 15.94507 105.69261 15.94507 108.07219 18.32466 108.07219 21.2601ZM102.75717 21.2601" fill="#9999ff"/>
<path transform="matrix(1.00009,0,0,-1.00009,30.475388,34.268644)" stroke-width=".3985" stroke-linecap="butt" stroke-miterlimit="10" stroke-linejoin="miter" fill="none" stroke="#000000" d="M108.07219 21.2601C108.07219 24.19554 105.69261 26.57512 102.75717 26.57512 99.82173 26.57512 97.44215 24.19554 97.44215 21.2601 97.44215 18.32466 99.82173 15.94507 102.75717 15.94507 105.69261 15.94507 108.07219 18.32466 108.07219 21.2601ZM102.75717 21.2601"/>
<path transform="matrix(1.00009,0,0,-1.00009,30.475388,34.268644)" d="M108.07219 7.08669C108.07219 10.02213 105.69261 12.4017 102.75717 12.4017 99.82173 12.4017 97.44215 10.02213 97.44215 7.08669 97.44215 4.15125 99.82173 1.77167 102.75717 1.77167 105.69261 1.77167 108.07219 4.15125 108.07219 7.08669ZM102.75717 7.08669" fill="#9999ff"/>
<path transform="matrix(1.00009,0,0,-1.00009,30.475388,34.268644)" stroke-width=".3985" stroke-linecap="butt" stroke-miterlimit="10" stroke-linejoin="miter" fill="none" stroke="#000000" d="M108.07219 7.08669C108.07219 10.02213 105.69261 12.4017 102.75717 12.4017 99.82173 12.4017 97.44215 10.02213 97.44215 7.08669 97.44215 4.15125 99.82173 1.77167 102.75717 1.77167 105.69261 1.77167 108.07219 4.15125 108.07219 7.08669ZM102.75717 7.08669"/>
<path transform="matrix(1.00009,0,0,-1.00009,30.475388,34.268644)" d="M122.24559 21.2601C122.24559 24.19554 119.86601 26.57512 116.93057 26.57512 113.99513 26.57512 111.61555 24.19554 111.61555 21.2601 111.61555 18.32466 113.99513 15.94507 116.93057 15.94507 119.86601 15.94507 122.24559 18.32466 122.24559 21.2601ZM116.93057 21.2601" fill="#9999ff"/>
<path transform="matrix(1.00009,0,0,-1.00009,30.475388,34.268644)" stroke-width=".3985" stroke-linecap="butt" stroke-miterlimit="10" stroke-linejoin="miter" fill="none" stroke="#000000" d="M122.24559 21.2601C122.24559 24.19554 119.86601 26.57512 116.93057 26.57512 113.99513 26.57512 111.61555 24.19554 111.61555 21.2601 111.61555 18.32466 113.99513 15.94507 116.93057 15.94507 119.86601 15.94507 122.24559 18.32466 122.24559 21.2601ZM116.93057 21.2601"/>
<path transform="matrix(1.00009,0,0,-1.00009,30.475388,34.268644)" d="M122.24559 7.08669C122.24559 10.02213 119.86601 12.4017 116.93057 12.4017 113.99513 12.4017 111.61555 10.02213 111.61555 7.08669 111.61555 4.15125 113.99513 1.77167 116.93057 1.77167 119.86601 1.77167 122.24559 4.15125 122.24559 7.08669ZM116.93057 7.08669" fill="#9999ff"/>
<path transform="matrix(1.00009,0,0,-1.00009,30.475388,34.268644)" stroke-width=".3985" stroke-linecap="butt" stroke-miterlimit="10" stroke-linejoin="miter" fill="none" stroke="#000000" d="M122.24559 7.08669C122.24559 10.02213 119.86601 12.4017 116.93057 12.4017 113.99513 12.4017 111.61555 10.02213 111.61555 7.08669 111.61555 4.15125 113.99513 1.77167 116.93057 1.77167 119.86601 1.77167 122.24559 4.15125 122.24559 7.08669ZM116.93057 7.08669"/>
<path transform="matrix(1.00009,0,0,-1.00009,30.475388,34.268644)" d="M124.01727-15.94505V-12.40172H95.67047V-15.94505Z" fill="#9999ff"/>
<path transform="matrix(1.00009,0,0,-1.00009,30.475388,34.268644)" stroke-width=".3985" stroke-linecap="butt" stroke-miterlimit="10" stroke-linejoin="miter" fill="none" stroke="#000000" d="M124.01727-15.94505V-12.40172H95.67047V-15.94505Z"/>
<path transform="matrix(1.00009,0,0,-1.00009,30.475388,34.268644)" stroke-width="1.19553" stroke-linecap="butt" stroke-miterlimit="10" stroke-linejoin="miter" fill="none" stroke="#000000" d="M95.67047-14.17339H180.71089"/>
<path transform="matrix(1.00009,0,0,-1.00009,30.475388,34.268644)" stroke-width=".3985" stroke-linecap="butt" stroke-miterlimit="10" stroke-linejoin="miter" fill="none" stroke="#000000" d="M95.67047-17.71674V-10.63004"/>
<path transform="matrix(1.00009,0,0,-1.00009,30.475388,34.268644)" stroke-width=".3985" stroke-linecap="butt" stroke-miterlimit="10" stroke-linejoin="miter" fill="none" stroke="#000000" d="M102.75717-17.71674V-10.63004"/>
<path transform="matrix(1.00009,0,0,-1.00009,30.475388,34.268644)" stroke-width=".3985" stroke-linecap="butt" stroke-miterlimit="10" stroke-linejoin="miter" fill="none" stroke="#000000" d="M109.84387-17.71674V-10.63004"/>
<path transform="matrix(1.00009,0,0,-1.00009,30.475388,34.268644)" stroke-width=".3985" stroke-linecap="butt" stroke-miterlimit="10" stroke-linejoin="miter" fill="none" stroke="#000000" d="M116.93057-17.71674V-10.63004"/>
<path transform="matrix(1.00009,0,0,-1.00009,30.475388,34.268644)" stroke-width=".3985" stroke-linecap="butt" stroke-miterlimit="10" stroke-linejoin="miter" fill="none" stroke="#000000" d="M124.01727-17.71674V-10.63004"/>
<path transform="matrix(1.00009,0,0,-1.00009,30.475388,34.268644)" stroke-width=".3985" stroke-linecap="butt" stroke-miterlimit="10" stroke-linejoin="miter" fill="none" stroke="#000000" d="M131.10399-17.71674V-10.63004"/>
<path transform="matrix(1.00009,0,0,-1.00009,30.475388,34.268644)" stroke-width=".3985" stroke-linecap="butt" stroke-miterlimit="10" stroke-linejoin="miter" fill="none" stroke="#000000" d="M138.19069-17.71674V-10.63004"/>
<path transform="matrix(1.00009,0,0,-1.00009,30.475388,34.268644)" stroke-width=".3985" stroke-linecap="butt" stroke-miterlimit="10" stroke-linejoin="miter" fill="none" stroke="#000000" d="M145.27738-17.71674V-10.63004"/>
<path transform="matrix(1.00009,0,0,-1.00009,30.475388,34.268644)" stroke-width=".3985" stroke-linecap="butt" stroke-miterlimit="10" stroke-linejoin="miter" fill="none" stroke="#000000" d="M152.36409-17.71674V-10.63004"/>
<path transform="matrix(1.00009,0,0,-1.00009,30.475388,34.268644)" stroke-width=".3985" stroke-linecap="butt" stroke-miterlimit="10" stroke-linejoin="miter" fill="none" stroke="#000000" d="M159.45079-17.71674V-10.63004"/>
<path transform="matrix(1.00009,0,0,-1.00009,30.475388,34.268644)" stroke-width=".3985" stroke-linecap="butt" stroke-miterlimit="10" stroke-linejoin="miter" fill="none" stroke="#000000" d="M166.53749-17.71674V-10.63004"/>
<path transform="matrix(1.00009,0,0,-1.00009,30.475388,34.268644)" stroke-width=".3985" stroke-linecap="butt" stroke-miterlimit="10" stroke-linejoin="miter" fill="none" stroke="#000000" d="M173.62419-17.71674V-10.63004"/>
<path transform="matrix(1.00009,0,0,-1.00009,30.475388,34.268644)" stroke-width=".3985" stroke-linecap="butt" stroke-miterlimit="10" stroke-linejoin="miter" fill="none" stroke="#000000" d="M180.71089-17.71674V-10.63004"/>
<path transform="matrix(1.00009,0,0,-1.00009,30.475388,34.268644)" d="M238.11302 29.63287 237.03643 26.99353 234.19355 26.78523 236.37102 24.94572 235.69068 22.17764 238.11302 23.6801 240.53537 22.17764 239.85501 24.94572 242.0325 26.78523 239.1896 26.99353Z" fill="#9999ff"/>
<path transform="matrix(1.00009,0,0,-1.00009,30.475388,34.268644)" stroke-width=".3985" stroke-linecap="butt" stroke-miterlimit="10" stroke-linejoin="miter" fill="none" stroke="#000000" d="M238.11302 29.63287 237.03643 26.99353 234.19355 26.78523 236.37102 24.94572 235.69068 22.17764 238.11302 23.6801 240.53537 22.17764 239.85501 24.94572 242.0325 26.78523 239.1896 26.99353Z"/>
<path transform="matrix(1.00009,0,0,-1.00009,30.475388,34.268644)" d="M216.85324-18.55594 215.77664-21.19528 212.93376-21.40358 215.11124-23.24309 214.4309-26.01117 216.85324-24.50871 219.27558-26.01117 218.59523-23.24309 220.77272-21.40358 217.92983-21.19528Z" fill="#9999ff"/>
<path transform="matrix(1.00009,0,0,-1.00009,30.475388,34.268644)" stroke-width=".3985" stroke-linecap="butt" stroke-miterlimit="10" stroke-linejoin="miter" fill="none" stroke="#000000" d="M216.85324-18.55594 215.77664-21.19528 212.93376-21.40358 215.11124-23.24309 214.4309-26.01117 216.85324-24.50871 219.27558-26.01117 218.59523-23.24309 220.77272-21.40358 217.92983-21.19528Z"/>
<path transform="matrix(1.00009,0,0,-1.00009,30.475388,34.268644)" d="M248.03424 23.96361 246.95766 21.32426 244.11476 21.11597 246.29225 19.27644 245.6119 16.50836 248.03424 18.01082 250.45659 16.50836 249.77623 19.27644 251.95372 21.11597 249.11083 21.32426Z" fill="#9999ff"/>
<path transform="matrix(1.00009,0,0,-1.00009,30.475388,34.268644)" stroke-width=".3985" stroke-linecap="butt" stroke-miterlimit="10" stroke-linejoin="miter" fill="none" stroke="#000000" d="M248.03424 23.96361 246.95766 21.32426 244.11476 21.11597 246.29225 19.27644 245.6119 16.50836 248.03424 18.01082 250.45659 16.50836 249.77623 19.27644 251.95372 21.11597 249.11083 21.32426Z"/>
<path transform="matrix(1.00009,0,0,-1.00009,30.475388,34.268644)" d="M225.35715-18.55594 224.28057-21.19528 221.43767-21.40358 223.61515-23.24309 222.9348-26.01117 225.35715-24.50871 227.7795-26.01117 227.09914-23.24309 229.27663-21.40358 226.43373-21.19528Z" fill="#9999ff"/>
<path transform="matrix(1.00009,0,0,-1.00009,30.475388,34.268644)" stroke-width=".3985" stroke-linecap="butt" stroke-miterlimit="10" stroke-linejoin="miter" fill="none" stroke="#000000" d="M225.35715-18.55594 224.28057-21.19528 221.43767-21.40358 223.61515-23.24309 222.9348-26.01117 225.35715-24.50871 227.7795-26.01117 227.09914-23.24309 229.27663-21.40358 226.43373-21.19528Z"/>
<path transform="matrix(1.00009,0,0,-1.00009,30.475388,34.268644)" d="M195.59323 32.46751 194.51665 29.82817 191.67375 29.61987 193.85124 27.78036 193.1709 25.01228 195.59323 26.51474 198.01558 25.01228 197.33524 27.78036 199.51271 29.61987 196.66983 29.82817Z" fill="#ffffff"/>
<path transform="matrix(1.00009,0,0,-1.00009,30.475388,34.268644)" stroke-width=".3985" stroke-linecap="butt" stroke-miterlimit="10" stroke-linejoin="miter" fill="none" stroke="#000000" d="M195.59323 32.46751 194.51665 29.82817 191.67375 29.61987 193.85124 27.78036 193.1709 25.01228 195.59323 26.51474 198.01558 25.01228 197.33524 27.78036 199.51271 29.61987 196.66983 29.82817Z"/>
<path transform="matrix(1.00009,0,0,-1.00009,30.475388,34.268644)" d="M238.1128-17.13861 237.03621-19.77795 234.19332-19.98625 236.37079-21.82576 235.69045-24.59384 238.1128-23.09138 240.53514-24.59384 239.85478-21.82576 242.03227-19.98625 239.18938-19.77795Z" fill="#ffffff"/>
<path transform="matrix(1.00009,0,0,-1.00009,30.475388,34.268644)" stroke-width=".3985" stroke-linecap="butt" stroke-miterlimit="10" stroke-linejoin="miter" fill="none" stroke="#000000" d="M238.1128-17.13861 237.03621-19.77795 234.19332-19.98625 236.37079-21.82576 235.69045-24.59384 238.1128-23.09138 240.53514-24.59384 239.85478-21.82576 242.03227-19.98625 239.18938-19.77795Z"/>
<path transform="matrix(1.00009,0,0,-1.00009,30.475388,34.268644)" d="M199.84519-21.39058 198.7686-24.0299 195.9257-24.2382 198.1032-26.07773 197.42284-28.84581 199.84519-27.34335 202.26753-28.84581 201.58718-26.07773 203.76467-24.2382 200.92177-24.0299Z" fill="#ffffff"/>
<path transform="matrix(1.00009,0,0,-1.00009,30.475388,34.268644)" stroke-width=".3985" stroke-linecap="butt" stroke-miterlimit="10" stroke-linejoin="miter" fill="none" stroke="#000000" d="M199.84519-21.39058 198.7686-24.0299 195.9257-24.2382 198.1032-26.07773 197.42284-28.84581 199.84519-27.34335 202.26753-28.84581 201.58718-26.07773 203.76467-24.2382 200.92177-24.0299Z"/>
<path transform="matrix(1.00009,0,0,-1.00009,30.475388,34.268644)" d="M184.25467 9.79042 183.17809 7.15108 180.33519 6.94278 182.51268 5.10327 181.83234 2.33519 184.25467 3.83765 186.67702 2.33519 185.99668 5.10327 188.17415 6.94278 185.33127 7.15108Z" fill="#ffffff"/>
<path transform="matrix(1.00009,0,0,-1.00009,30.475388,34.268644)" stroke-width=".3985" stroke-linecap="butt" stroke-miterlimit="10" stroke-linejoin="miter" fill="none" stroke="#000000" d="M184.25467 9.79042 183.17809 7.15108 180.33519 6.94278 182.51268 5.10327 181.83234 2.33519 184.25467 3.83765 186.67702 2.33519 185.99668 5.10327 188.17415 6.94278 185.33127 7.15108Z"/>
<path transform="matrix(1.00009,0,0,-1.00009,30.475388,34.268644)" d="M187.08933 32.46751 186.01274 29.82817 183.16985 29.61987 185.34734 27.78036 184.66698 25.01228 187.08933 26.51474 189.51168 25.01228 188.83132 27.78036 191.0088 29.61987 188.16591 29.82817Z" fill="#ffffff"/>
<path transform="matrix(1.00009,0,0,-1.00009,30.475388,34.268644)" stroke-width=".3985" stroke-linecap="butt" stroke-miterlimit="10" stroke-linejoin="miter" fill="none" stroke="#000000" d="M187.08933 32.46751 186.01274 29.82817 183.16985 29.61987 185.34734 27.78036 184.66698 25.01228 187.08933 26.51474 189.51168 25.01228 188.83132 27.78036 191.0088 29.61987 188.16591 29.82817Z"/>
<path transform="matrix(1.00009,0,0,-1.00009,30.475388,34.268644)" d="M206.93178-24.2252 205.8552-26.86455 203.0123-27.07285 205.18979-28.91237 204.50945-31.68045 206.93178-30.178 209.35413-31.68045 208.67378-28.91237 210.85128-27.07285 208.00838-26.86455Z" fill="#ffffff"/>
<path transform="matrix(1.00009,0,0,-1.00009,30.475388,34.268644)" stroke-width=".3985" stroke-linecap="butt" stroke-miterlimit="10" stroke-linejoin="miter" fill="none" stroke="#000000" d="M206.93178-24.2252 205.8552-26.86455 203.0123-27.07285 205.18979-28.91237 204.50945-31.68045 206.93178-30.178 209.35413-31.68045 208.67378-28.91237 210.85128-27.07285 208.00838-26.86455Z"/>
<path transform="matrix(1.00009,0,0,-1.00009,30.475388,34.268644)" d="M195.59323 5.53845 194.51665 2.89911 191.67375 2.69081 193.85124 .8513 193.1709-1.91676 195.59323-.4143 198.01558-1.91676 197.33524 .8513 199.51271 2.69081 196.66983 2.89911Z" fill="#ffffff"/>
<path transform="matrix(1.00009,0,0,-1.00009,30.475388,34.268644)" stroke-width=".3985" stroke-linecap="butt" stroke-miterlimit="10" stroke-linejoin="miter" fill="none" stroke="#000000" d="M195.59323 5.53845 194.51665 2.89911 191.67375 2.69081 193.85124 .8513 193.1709-1.91676 195.59323-.4143 198.01558-1.91676 197.33524 .8513 199.51271 2.69081 196.66983 2.89911Z"/>
<path transform="matrix(1.00009,0,0,-1.00009,30.475388,34.268644)" d="M239.53012-2.96542 238.45352-5.60477 235.61064-5.81306 237.78812-7.65257 237.10778-10.42065 239.53012-8.9182 241.95246-10.42065 241.27211-7.65257 243.4496-5.81306 240.6067-5.60477Z" fill="#ffffff"/>
<path transform="matrix(1.00009,0,0,-1.00009,30.475388,34.268644)" stroke-width=".3985" stroke-linecap="butt" stroke-miterlimit="10" stroke-linejoin="miter" fill="none" stroke="#000000" d="M239.53012-2.96542 238.45352-5.60477 235.61064-5.81306 237.78812-7.65257 237.10778-10.42065 239.53012-8.9182 241.95246-10.42065 241.27211-7.65257 243.4496-5.81306 240.6067-5.60477Z"/>
</svg>
