<svg xmlns="http://www.w3.org/2000/svg" xmlns:xlink="http://www.w3.org/1999/xlink" xmlns:inkscape="http://www.inkscape.org/namespaces/inkscape" version="1.1" width="168" height="140" viewBox="0 0 168 140">
<path transform="matrix(1.00003,0,0,-1.00002,-14.912018,154.87277)" stroke-width=".3985" stroke-linecap="butt" stroke-miterlimit="10" stroke-linejoin="miter" fill="none" stroke="#000000" d="M17.00824 17.00824H39.68535V39.68535H17.00824Z"/>
<path transform="matrix(1.00003,0,0,-1.00002,-14.912018,154.87277)" stroke-width=".3985" stroke-linecap="butt" stroke-miterlimit="10" stroke-linejoin="miter" fill="none" stroke="#000000" d="M17.00824 45.35506H39.68535V68.03217H17.00824Z"/>
<path transform="matrix(1.00003,0,0,-1.00002,-14.912018,154.87277)" stroke-width=".3985" stroke-linecap="butt" stroke-miterlimit="10" stroke-linejoin="miter" fill="none" stroke="#000000" d="M17.00824 73.70186H39.68535V96.37897H17.00824Z"/>
<path transform="matrix(1.00003,0,0,-1.00002,-14.912018,154.87277)" stroke-width=".3985" stroke-linecap="butt" stroke-miterlimit="10" stroke-linejoin="miter" fill="none" stroke="#000000" d="M17.00824 102.04868H39.68535V124.72578H17.00824Z"/>
<path transform="matrix(1.00003,0,0,-1.00002,-14.912018,154.87277)" stroke-width=".3985" stroke-linecap="butt" stroke-miterlimit="10" stroke-linejoin="miter" fill="none" stroke="#000000" d="M17.00824 130.39548H39.68535V153.07259H17.00824Z"/>
<path transform="matrix(1.00003,0,0,-1.00002,-14.912018,154.87277)" stroke-width=".3985" stroke-linecap="butt" stroke-miterlimit="10" stroke-linejoin="miter" fill="none" stroke="#000000" d="M45.35506 17.00824H68.03217V39.68535H45.35506Z"/>
<path transform="matrix(1.00003,0,0,-1.00002,-14.912018,154.87277)" stroke-width=".3985" stroke-linecap="butt" stroke-miterlimit="10" stroke-linejoin="miter" fill="none" stroke="#000000" d="M45.35506 45.35506H68.03217V68.03217H45.35506Z"/>
<path transform="matrix(1.00003,0,0,-1.00002,-14.912018,154.87277)" stroke-width=".3985" stroke-linecap="butt" stroke-miterlimit="10" stroke-linejoin="miter" fill="none" stroke="#000000" d="M45.35506 73.70186H68.03217V96.37897H45.35506Z"/>
<path transform="matrix(1.00003,0,0,-1.00002,-14.912018,154.87277)" stroke-width=".3985" stroke-linecap="butt" stroke-miterlimit="10" stroke-linejoin="miter" fill="none" stroke="#000000" d="M45.35506 102.04868H68.03217V124.72578H45.35506Z"/>
<path transform="matrix(1.00003,0,0,-1.00002,-14.912018,154.87277)" stroke-width=".3985" stroke-linecap="butt" stroke-miterlimit="10" stroke-linejoin="miter" fill="none" stroke="#000000" d="M45.35506 130.39548H68.03217V153.07259H45.35506Z"/>
<path transform="matrix(1.00003,0,0,-1.00002,-14.912018,154.87277)" stroke-width=".3985" stroke-linecap="butt" stroke-miterlimit="10" stroke-linejoin="miter" fill="none" stroke="#000000" d="M73.70186 17.00824H96.37897V39.68535H73.70186Z"/>
<path transform="matrix(1.00003,0,0,-1.00002,-14.912018,154.87277)" stroke-width=".3985" stroke-linecap="butt" stroke-miterlimit="10" stroke-linejoin="miter" fill="none" stroke="#000000" d="M73.70186 45.35506H96.37897V68.03217H73.70186Z"/>
<path transform="matrix(1.00003,0,0,-1.00002,-14.912018,154.87277)" stroke-width=".3985" stroke-linecap="butt" stroke-miterlimit="10" stroke-linejoin="miter" fill="none" stroke="#000000" d="M73.70186 73.70186H96.37897V96.37897H73.70186Z"/>
<path transform="matrix(1.00003,0,0,-1.00002,-14.912018,154.87277)" stroke-width=".3985" stroke-linecap="butt" stroke-miterlimit="10" stroke-linejoin="miter" fill="none" stroke="#000000" d="M73.70186 102.04868H96.37897V124.72578H73.70186Z"/>
<path transform="matrix(1.00003,0,0,-1.00002,-14.912018,154.87277)" stroke-width=".3985" stroke-linecap="butt" stroke-miterlimit="10" stroke-linejoin="miter" fill="none" stroke="#000000" d="M73.70186 130.39548H96.37897V153.07259H73.70186Z"/>
<path transform="matrix(1.00003,0,0,-1.00002,-14.912018,154.87277)" stroke-width=".3985" stroke-linecap="butt" stroke-miterlimit="10" stroke-linejoin="miter" fill="none" stroke="#000000" d="M102.04868 17.00824H124.72578V39.68535H102.04868Z"/>
<path transform="matrix(1.00003,0,0,-1.00002,-14.912018,154.87277)" stroke-width=".3985" stroke-linecap="butt" stroke-miterlimit="10" stroke-linejoin="miter" fill="none" stroke="#000000" d="M102.04868 45.35506H124.72578V68.03217H102.04868Z"/>
<path transform="matrix(1.00003,0,0,-1.00002,-14.912018,154.87277)" stroke-width=".3985" stroke-linecap="butt" stroke-miterlimit="10" stroke-linejoin="miter" fill="none" stroke="#000000" d="M102.04868 73.70186H124.72578V96.37897H102.04868Z"/>
<path transform="matrix(1.00003,0,0,-1.00002,-14.912018,154.87277)" stroke-width=".3985" stroke-linecap="butt" stroke-miterlimit="10" stroke-linejoin="miter" fill="none" stroke="#000000" d="M102.04868 102.04868H124.72578V124.72578H102.04868Z"/>
<path transform="matrix(1.00003,0,0,-1.00002,-14.912018,154.87277)" stroke-width=".3985" stroke-linecap="butt" stroke-miterlimit="10" stroke-linejoin="miter" fill="none" stroke="#000000" d="M102.04868 130.39548H124.72578V153.07259H102.04868Z"/>
<path transform="matrix(1.00003,0,0,-1.00002,-14.912018,154.87277)" stroke-width=".3985" stroke-linecap="butt" stroke-miterlimit="10" stroke-linejoin="miter" fill="none" stroke="#000000" d="M130.39548 17.00824H153.07259V39.68535H130.39548Z"/>
<path transform="matrix(1.00003,0,0,-1.00002,-14.912018,154.87277)" stroke-width=".3985" stroke-linecap="butt" stroke-miterlimit="10" stroke-linejoin="miter" fill="none" stroke="#000000" d="M130.39548 45.35506H153.07259V68.03217H130.39548Z"/>
<path transform="matrix(1.00003,0,0,-1.00002,-14.912018,154.87277)" stroke-width=".3985" stroke-linecap="butt" stroke-miterlimit="10" stroke-linejoin="miter" fill="none" stroke="#000000" d="M130.39548 73.70186H153.07259V96.37897H130.39548Z"/>
<path transform="matrix(1.00003,0,0,-1.00002,-14.912018,154.87277)" stroke-width=".3985" stroke-linecap="butt" stroke-miterlimit="10" stroke-linejoin="miter" fill="none" stroke="#000000" d="M130.39548 102.04868H153.07259V124.72578H130.39548Z"/>
<path transform="matrix(1.00003,0,0,-1.00002,-14.912018,154.87277)" stroke-width=".3985" stroke-linecap="butt" stroke-miterlimit="10" stroke-linejoin="miter" fill="none" stroke="#000000" d="M130.39548 130.39548H153.07259V153.07259H130.39548Z"/>
<path transform="matrix(1.00003,0,0,-1.00002,-14.912018,154.87277)" stroke-width=".3985" stroke-linecap="butt" stroke-miterlimit="10" stroke-linejoin="miter" fill="none" stroke="#000000" d="M158.7423 17.00824H181.4194V39.68535H158.7423Z"/>
<path transform="matrix(1.00003,0,0,-1.00002,-14.912018,154.87277)" stroke-width=".3985" stroke-linecap="butt" stroke-miterlimit="10" stroke-linejoin="miter" fill="none" stroke="#000000" d="M158.7423 45.35506H181.4194V68.03217H158.7423Z"/>
<path transform="matrix(1.00003,0,0,-1.00002,-14.912018,154.87277)" stroke-width=".3985" stroke-linecap="butt" stroke-miterlimit="10" stroke-linejoin="miter" fill="none" stroke="#000000" d="M158.7423 73.70186H181.4194V96.37897H158.7423Z"/>
<path transform="matrix(1.00003,0,0,-1.00002,-14.912018,154.87277)" stroke-width=".3985" stroke-linecap="butt" stroke-miterlimit="10" stroke-linejoin="miter" fill="none" stroke="#000000" d="M158.7423 102.04868H181.4194V124.72578H158.7423Z"/>
<path transform="matrix(1.00003,0,0,-1.00002,-14.912018,154.87277)" stroke-width=".3985" stroke-linecap="butt" stroke-miterlimit="10" stroke-linejoin="miter" fill="none" stroke="#000000" d="M158.7423 130.39548H181.4194V153.07259H158.7423Z"/>
</svg>
